<svg width="246" height="72" viewBox="0 0 246 72" fill="none" xmlns="http://www.w3.org/2000/svg">
<path d="M244.45 62.8238C244.45 66.6082 241.32 69.6736 237.45 69.6736H8.37478C4.50601 69.6736 1.36572 66.6082 1.36572 62.8238V8.19884C1.36572 4.41624 4.50601 1.34009 8.37478 1.34009H237.448C241.32 1.34009 244.448 4.41624 244.448 8.19884L244.45 62.8238Z" fill="black"/>
<path d="M236.711 1.42237C240.926 1.42237 244.356 4.76666 244.356 8.87655V62.1365C244.356 66.2464 240.926 69.5907 236.711 69.5907H9.10427C4.88899 69.5907 1.45896 66.2464 1.45896 62.1365V8.87655C1.45896 4.76666 4.88899 1.42237 9.10427 1.42237H236.711ZM236.711 -0.000108823H9.10427C4.0992 -0.000108823 0 3.99661 0 8.87655V62.1365C0 67.0165 4.0992 71.0132 9.10427 71.0132H236.711C241.716 71.0132 245.815 67.0165 245.815 62.1365V8.87655C245.815 3.99661 241.716 -0.000108823 236.711 -0.000108823Z" fill="#A6A6A6"/>
<path d="M54.8585 35.123C54.8057 29.4011 59.6637 26.6174 59.8859 26.4878C57.1346 22.5768 52.8701 22.0424 51.3716 21.9998C47.7899 21.6323 44.3157 24.0894 42.4912 24.0894C40.6303 24.0894 37.8208 22.0353 34.7927 22.0957C30.8961 22.1542 27.2507 24.3539 25.2514 27.7696C21.1254 34.7342 24.2026 44.969 28.1557 50.5986C30.1331 53.3557 32.4438 56.4341 35.4682 56.3258C38.4271 56.2069 39.5324 54.4866 43.1031 54.4866C46.641 54.4866 47.6789 56.3258 50.7634 56.2566C53.939 56.2069 55.9383 53.4871 57.8465 50.7051C60.1317 47.545 61.0494 44.4329 61.0858 44.2731C61.0112 44.2482 54.9186 41.9811 54.8585 35.123Z" fill="white"/>
<path d="M49.0318 18.2964C50.6232 16.356 51.7121 13.7161 51.4098 11.0371C49.1064 11.1365 46.2258 12.5905 44.567 14.4884C43.0994 16.1607 41.7884 18.9018 42.1271 21.4796C44.7145 21.6678 47.3711 20.2067 49.0318 18.2964Z" fill="white"/>
<path d="M89.3131 17.7692C89.3131 19.8588 88.6703 21.4317 87.3866 22.488C86.1976 23.4627 84.5079 23.9509 82.3192 23.9509C81.234 23.9509 80.3053 23.9047 79.5278 23.8124V12.3953C80.542 12.2355 81.6346 12.1538 82.8145 12.1538C84.8994 12.1538 86.4708 12.5959 87.5305 13.48C88.7177 14.4795 89.3131 15.9086 89.3131 17.7692ZM87.3011 17.8207C87.3011 16.4661 86.9333 15.4275 86.1976 14.7032C85.462 13.9806 84.3877 13.6185 82.9729 13.6185C82.372 13.6185 81.8603 13.6575 81.4361 13.7392V22.4188C81.671 22.4543 82.1007 22.4703 82.7253 22.4703C84.1856 22.4703 85.3127 22.0744 86.1066 21.2826C86.9005 20.4908 87.3011 19.3368 87.3011 17.8207Z" fill="white"/>
<path d="M99.9816 19.594C99.9816 20.8811 99.6047 21.9357 98.8508 22.763C98.0606 23.6134 97.0136 24.0377 95.7062 24.0377C94.4462 24.0377 93.4429 23.6311 92.6945 22.8145C91.948 21.9996 91.5747 20.9717 91.5747 19.7325C91.5747 18.4365 91.9589 17.3731 92.7309 16.5475C93.503 15.722 94.5409 15.3083 95.8483 15.3083C97.1083 15.3083 98.1207 15.7149 98.8873 16.5298C99.6156 17.3216 99.9816 18.3442 99.9816 19.594ZM98.0023 19.6544C98.0023 18.8821 97.8312 18.2199 97.4907 17.6678C97.0901 17.0002 96.5202 16.6665 95.7791 16.6665C95.0125 16.6665 94.4298 17.0002 94.0292 17.6678C93.6869 18.2199 93.5176 18.8927 93.5176 19.6881C93.5176 20.4604 93.6887 21.1226 94.0292 21.6747C94.4426 22.3422 95.0179 22.676 95.7609 22.676C96.4892 22.676 97.0609 22.3369 97.4725 21.6569C97.8257 21.0942 98.0023 20.4266 98.0023 19.6544Z" fill="white"/>
<path d="M114.286 15.4792L111.6 23.8482H109.852L108.74 20.2141C108.457 19.3069 108.228 18.405 108.05 17.5102H108.015C107.849 18.4299 107.62 19.3299 107.325 20.2141L106.143 23.8482H104.375L101.85 15.4792H103.811L104.781 19.4578C105.016 20.3987 105.209 21.2952 105.364 22.1438H105.398C105.54 21.4444 105.775 20.5531 106.107 19.4755L107.325 15.481H108.88L110.047 19.3903C110.329 20.3437 110.559 21.2615 110.735 22.1456H110.788C110.917 21.2846 111.112 20.3667 111.371 19.3903L112.412 15.481H114.286V15.4792Z" fill="white"/>
<path d="M124.179 23.8479H122.27V19.0545C122.27 17.5774 121.695 16.8389 120.54 16.8389C119.974 16.8389 119.517 17.0413 119.162 17.4478C118.811 17.8544 118.632 18.3337 118.632 18.8823V23.8461H116.724V17.8704C116.724 17.1354 116.7 16.3382 116.655 15.4754H118.332L118.421 16.7839H118.474C118.696 16.3773 119.027 16.0418 119.463 15.7737C119.98 15.4612 120.559 15.3032 121.192 15.3032C121.994 15.3032 122.66 15.5553 123.19 16.0613C123.849 16.6809 124.179 17.6058 124.179 18.8344V23.8479V23.8479Z" fill="white"/>
<path d="M129.441 23.8479H127.535V11.6389H129.441V23.8479Z" fill="white"/>
<path d="M140.676 19.594C140.676 20.8811 140.299 21.9357 139.545 22.763C138.755 23.6134 137.706 24.0377 136.401 24.0377C135.139 24.0377 134.135 23.6311 133.389 22.8145C132.642 21.9996 132.269 20.9717 132.269 19.7325C132.269 18.4365 132.653 17.3731 133.425 16.5475C134.197 15.722 135.235 15.3083 136.541 15.3083C137.803 15.3083 138.813 15.7149 139.582 16.5298C140.31 17.3216 140.676 18.3442 140.676 19.594ZM138.695 19.6544C138.695 18.8821 138.524 18.2199 138.183 17.6678C137.784 17.0002 137.213 16.6665 136.473 16.6665C135.705 16.6665 135.122 17.0002 134.724 17.6678C134.381 18.2199 134.212 18.8927 134.212 19.6881C134.212 20.4604 134.383 21.1226 134.724 21.6747C135.137 22.3422 135.712 22.676 136.455 22.676C137.184 22.676 137.753 22.3369 138.165 21.6569C138.52 21.0942 138.695 20.4266 138.695 19.6544Z" fill="white"/>
<path d="M149.911 23.8477H148.198L148.056 22.8837H148.003C147.417 23.6524 146.581 24.0377 145.496 24.0377C144.686 24.0377 144.03 23.7838 143.537 23.2796C143.089 22.8216 142.865 22.2517 142.865 21.5753C142.865 20.5527 143.302 19.7733 144.181 19.2336C145.059 18.6939 146.293 18.4294 147.883 18.4418V18.2856C147.883 17.1831 147.289 16.6327 146.1 16.6327C145.254 16.6327 144.507 16.8405 143.863 17.2523L143.475 16.0309C144.272 15.5498 145.257 15.3083 146.419 15.3083C148.662 15.3083 149.788 16.4623 149.788 18.7702V21.8522C149.788 22.6884 149.83 23.3542 149.911 23.8477ZM147.93 20.9717V19.681C145.825 19.6455 144.773 20.2083 144.773 21.3676C144.773 21.8043 144.893 22.1309 145.139 22.3493C145.385 22.5677 145.698 22.676 146.071 22.676C146.49 22.676 146.882 22.5464 147.238 22.289C147.597 22.0298 147.817 21.7013 147.899 21.2983C147.919 21.2078 147.93 21.0977 147.93 20.9717Z" fill="white"/>
<path d="M160.754 23.8479H159.06L158.971 22.5039H158.918C158.378 23.5265 157.456 24.0378 156.162 24.0378C155.127 24.0378 154.266 23.6419 153.583 22.8501C152.901 22.0583 152.56 21.0304 152.56 19.7682C152.56 18.4136 152.93 17.3164 153.673 16.4785C154.392 15.6973 155.273 15.3068 156.322 15.3068C157.475 15.3068 158.281 15.6849 158.74 16.443H158.776V11.6389H160.687V21.5932C160.687 22.4081 160.708 23.159 160.754 23.8479ZM158.776 20.3185V18.9231C158.776 18.6817 158.758 18.4864 158.724 18.3372C158.616 17.8899 158.385 17.5135 158.034 17.2099C157.678 16.9063 157.251 16.7536 156.757 16.7536C156.045 16.7536 155.488 17.0288 155.078 17.581C154.672 18.1331 154.466 18.8379 154.466 19.6989C154.466 20.5262 154.661 21.1973 155.053 21.7139C155.466 22.2643 156.023 22.5395 156.721 22.5395C157.347 22.5395 157.848 22.3104 158.228 21.8506C158.596 21.4263 158.776 20.915 158.776 20.3185Z" fill="white"/>
<path d="M177.075 19.594C177.075 20.8811 176.698 21.9357 175.944 22.763C175.154 23.6134 174.109 24.0377 172.799 24.0377C171.541 24.0377 170.538 23.6311 169.788 22.8145C169.041 21.9996 168.668 20.9717 168.668 19.7325C168.668 18.4365 169.052 17.3731 169.824 16.5475C170.596 15.722 171.634 15.3083 172.943 15.3083C174.202 15.3083 175.216 15.7149 175.981 16.5298C176.709 17.3216 177.075 18.3442 177.075 19.594ZM175.097 19.6544C175.097 18.8821 174.926 18.2199 174.586 17.6678C174.183 17.0002 173.615 16.6665 172.872 16.6665C172.108 16.6665 171.525 17.0002 171.122 17.6678C170.78 18.2199 170.611 18.8927 170.611 19.6881C170.611 20.4604 170.782 21.1226 171.122 21.6747C171.536 22.3422 172.111 22.676 172.854 22.676C173.582 22.676 174.156 22.3369 174.568 21.6569C174.919 21.0942 175.097 20.4266 175.097 19.6544Z" fill="white"/>
<path d="M187.335 23.8479H185.428V19.0545C185.428 17.5774 184.853 16.8389 183.697 16.8389C183.131 16.8389 182.674 17.0413 182.32 17.4478C181.967 17.8544 181.79 18.3337 181.79 18.8823V23.8461H179.88V17.8704C179.88 17.1354 179.859 16.3382 179.813 15.4754H181.488L181.577 16.7839H181.63C181.854 16.3773 182.186 16.0418 182.619 15.7737C183.138 15.4612 183.715 15.3032 184.351 15.3032C185.15 15.3032 185.816 15.5553 186.346 16.0613C187.007 16.6809 187.335 17.6058 187.335 18.8344V23.8479V23.8479Z" fill="white"/>
<path d="M200.177 16.8727H198.076V20.9382C198.076 21.9714 198.449 22.488 199.189 22.488C199.531 22.488 199.815 22.4596 200.039 22.401L200.088 23.8124C199.711 23.9509 199.216 24.0201 198.606 24.0201C197.852 24.0201 197.266 23.7964 196.842 23.3491C196.415 22.9017 196.204 22.1489 196.204 21.0926V16.8727H194.95V15.479H196.204V13.9451L198.074 13.3948V15.4772H200.176V16.8727H200.177Z" fill="white"/>
<path d="M210.279 23.8479H208.369V19.09C208.369 17.5898 207.794 16.8389 206.641 16.8389C205.756 16.8389 205.152 17.2738 204.82 18.1437C204.764 18.3266 204.731 18.5503 204.731 18.813V23.8461H202.825V11.6389H204.731V16.6826H204.768C205.368 15.7648 206.23 15.3068 207.346 15.3068C208.136 15.3068 208.79 15.5588 209.309 16.0648C209.955 16.6951 210.279 17.6324 210.279 18.8716V23.8479V23.8479Z" fill="white"/>
<path d="M220.701 19.2674C220.701 19.6012 220.675 19.8817 220.63 20.1107H214.907C214.932 20.938 215.205 21.5683 215.735 22.005C216.219 22.3956 216.844 22.5909 217.609 22.5909C218.455 22.5909 219.227 22.4595 219.923 22.195L220.222 23.4874C219.408 23.8318 218.45 24.004 217.341 24.004C216.012 24.004 214.965 23.6223 214.207 22.8589C213.446 22.0956 213.069 21.0712 213.069 19.7858C213.069 18.5236 213.421 17.4726 214.129 16.6346C214.868 15.7399 215.868 15.2925 217.13 15.2925C218.364 15.2925 219.302 15.7399 219.936 16.6346C220.447 17.3448 220.701 18.2236 220.701 19.2674ZM218.88 18.7863C218.894 18.2342 218.769 17.7584 218.51 17.3572C218.179 16.8406 217.674 16.5814 216.991 16.5814C216.369 16.5814 215.861 16.8335 215.473 17.3394C215.156 17.7424 214.968 18.2236 214.907 18.7863H218.88Z" fill="white"/>
<path d="M97.6799 55.9301H93.5448L91.2796 48.9903H83.4063L81.2486 55.9301H77.2227L85.0232 32.304H89.8412L97.6799 55.9301ZM90.5968 46.0788L88.5484 39.9095C88.3317 39.2792 87.9256 37.7951 87.3266 35.4587H87.2537C87.0152 36.4636 86.631 37.9477 86.103 39.9095L84.0909 46.0788H90.5968V46.0788Z" fill="white"/>
<path d="M117.741 47.2027C117.741 50.1001 116.938 52.3903 115.332 54.0715C113.893 55.5681 112.107 56.3155 109.975 56.3155C107.673 56.3155 106.02 55.5095 105.013 53.8975H104.94V62.8718H101.058V44.5024C101.058 42.681 101.009 40.8115 100.914 38.8942H104.328L104.545 41.5945H104.618C105.912 39.5599 107.877 38.5444 110.514 38.5444C112.575 38.5444 114.296 39.338 115.672 40.9269C117.052 42.5176 117.741 44.609 117.741 47.2027ZM113.786 47.3412C113.786 45.683 113.403 44.316 112.635 43.2402C111.795 42.1182 110.668 41.5572 109.255 41.5572C108.298 41.5572 107.427 41.8696 106.65 42.4857C105.87 43.107 105.361 43.9184 105.122 44.9232C105.002 45.3919 104.942 45.7754 104.942 46.0772V48.9177C104.942 50.1569 105.331 51.2026 106.111 52.0565C106.89 52.9104 107.902 53.3365 109.148 53.3365C110.61 53.3365 111.748 52.7861 112.562 51.689C113.378 50.5901 113.786 49.1414 113.786 47.3412Z" fill="white"/>
<path d="M137.837 47.2027C137.837 50.1001 137.034 52.3903 135.427 54.0715C133.99 55.5681 132.204 56.3155 130.071 56.3155C127.77 56.3155 126.117 55.5095 125.111 53.8975H125.039V62.8718H121.157V44.5024C121.157 42.681 121.107 40.8115 121.013 38.8942H124.427L124.643 41.5945H124.716C126.009 39.5599 127.974 38.5444 130.612 38.5444C132.672 38.5444 134.392 39.338 135.773 40.9269C137.147 42.5176 137.837 44.609 137.837 47.2027ZM133.882 47.3412C133.882 45.683 133.498 44.316 132.73 43.2402C131.89 42.1182 130.767 41.5572 129.352 41.5572C128.393 41.5572 127.524 41.8696 126.745 42.4857C125.965 43.107 125.457 43.9184 125.219 44.9232C125.101 45.3919 125.039 45.7754 125.039 46.0772V48.9177C125.039 50.1569 125.428 51.2026 126.204 52.0565C126.983 52.9086 127.996 53.3365 129.245 53.3365C130.707 53.3365 131.845 52.7861 132.659 51.689C133.475 50.5901 133.882 49.1414 133.882 47.3412Z" fill="white"/>
<path d="M160.306 49.3045C160.306 51.3142 159.591 52.9493 158.154 54.2116C156.575 55.591 154.378 56.2798 151.554 56.2798C148.946 56.2798 146.856 55.7898 145.273 54.8081L146.173 51.6533C147.877 52.6581 149.747 53.1623 151.785 53.1623C153.247 53.1623 154.385 52.8392 155.203 52.1966C156.016 51.5539 156.423 50.6911 156.423 49.6152C156.423 48.6565 156.087 47.8488 155.416 47.1937C154.747 46.5386 153.631 45.9296 152.073 45.3669C147.83 43.8241 145.71 41.5641 145.71 38.5922C145.71 36.65 146.453 35.0575 147.941 33.8183C149.423 32.5774 151.401 31.9578 153.873 31.9578C156.078 31.9578 157.91 32.3324 159.372 33.0798L158.402 36.1653C157.036 35.441 155.492 35.0788 153.764 35.0788C152.398 35.0788 151.331 35.4072 150.567 36.0606C149.92 36.6446 149.596 37.3566 149.596 38.1998C149.596 39.1337 149.966 39.9059 150.709 40.5131C151.355 41.0741 152.53 41.6813 154.234 42.3364C156.319 43.1548 157.85 44.1117 158.835 45.2088C159.817 46.3025 160.306 47.6712 160.306 49.3045Z" fill="white"/>
<path d="M173.142 41.7345H168.863V50.0058C168.863 52.1096 169.616 53.1606 171.128 53.1606C171.821 53.1606 172.397 53.102 172.852 52.9848L172.959 55.8591C172.195 56.1378 171.188 56.278 169.94 56.278C168.407 56.278 167.209 55.8218 166.344 54.911C165.483 53.9985 165.05 52.4682 165.05 50.3183V41.731H162.5V38.8904H165.05V35.7712L168.863 34.6492V38.8904H173.142V41.7345Z" fill="white"/>
<path d="M192.448 47.2717C192.448 49.8903 191.68 52.0402 190.147 53.7214C188.539 55.4524 186.405 56.3152 183.745 56.3152C181.181 56.3152 179.14 55.4861 177.617 53.828C176.095 52.1698 175.334 50.0767 175.334 47.5539C175.334 44.914 176.117 42.7517 177.688 41.0704C179.256 39.3874 181.372 38.5459 184.032 38.5459C186.596 38.5459 188.659 39.375 190.216 41.0349C191.705 42.6451 192.448 44.7241 192.448 47.2717ZM188.42 47.3942C188.42 45.823 188.076 44.4755 187.379 43.3517C186.565 41.9918 185.401 41.3136 183.894 41.3136C182.333 41.3136 181.148 41.9936 180.334 43.3517C179.637 44.4773 179.293 45.8461 179.293 47.4652C179.293 49.0363 179.637 50.3838 180.334 51.5058C181.173 52.8657 182.346 53.5439 183.859 53.5439C185.341 53.5439 186.505 52.8515 187.344 51.4703C188.06 50.3252 188.42 48.9635 188.42 47.3942Z" fill="white"/>
<path d="M205.067 42.2229C204.683 42.1537 204.273 42.1182 203.843 42.1182C202.478 42.1182 201.422 42.6206 200.679 43.6272C200.032 44.5149 199.708 45.6369 199.708 46.9915V55.9303H195.828L195.864 44.2592C195.864 42.2957 195.815 40.508 195.719 38.8959H199.1L199.242 42.1555H199.35C199.759 41.0352 200.406 40.1334 201.291 39.457C202.155 38.848 203.09 38.5444 204.097 38.5444C204.455 38.5444 204.779 38.5693 205.067 38.6137V42.2229Z" fill="white"/>
<path d="M222.429 46.6059C222.429 47.2841 222.383 47.8558 222.287 48.3227H210.64C210.686 50.0057 211.249 51.2928 212.33 52.1805C213.312 52.9741 214.581 53.3717 216.139 53.3717C217.864 53.3717 219.437 53.1037 220.852 52.5657L221.46 55.1932C219.807 55.8963 217.855 56.246 215.602 56.246C212.893 56.246 210.766 55.4684 209.218 53.915C207.674 52.3616 206.9 50.2756 206.9 47.6587C206.9 45.0898 207.62 42.9505 209.06 41.2444C210.568 39.423 212.605 38.5122 215.169 38.5122C217.687 38.5122 219.594 39.423 220.888 41.2444C221.913 42.6913 222.429 44.4809 222.429 46.6059ZM218.727 45.6242C218.752 44.5022 218.499 43.5328 217.973 42.7144C217.301 41.6616 216.269 41.1361 214.879 41.1361C213.61 41.1361 212.578 41.6492 211.789 42.6789C211.143 43.4973 210.759 44.4791 210.64 45.6224H218.727V45.6242Z" fill="white"/>
</svg>
