<svg xmlns="http://www.w3.org/2000/svg" width="50" height="49" viewBox="0 0 50 49">
    <defs>
        <clipPath id="qpsn0ulhpa">
            <rect data-name="Rectangle 22459" width="50" height="49" rx="20" transform="translate(-.344 -.264)" style="fill:#fff"/>
        </clipPath>
    </defs>
    <g data-name="Group 39716" transform="translate(.344 .264)" style="clip-path:url(#qpsn0ulhpa)">
        <path data-name="Path 78005" d="M325 560.924a.692.692 0 0 1 .691-.692h13.831a.692.692 0 1 1 0 1.383h-13.831a.691.691 0 0 1-.691-.691z" transform="translate(-307.749 -536.557)" style="fill-rule:evenodd;fill:#fff"/>
        <path data-name="Path 78006" d="M331.794 556.077a.692.692 0 0 1 .937-.28l-.327.609.327-.609h.006l.014.007.05.028.186.1c.157.09.382.221.65.386a23.782 23.782 0 0 1 1.977 1.352 12.462 12.462 0 0 1 2.032 1.9 3.271 3.271 0 0 1 0 4.762 12.415 12.415 0 0 1-2.032 1.9 23.535 23.535 0 0 1-1.977 1.354c-.268.165-.493.3-.65.387l-.186.1-.05.027-.014.007-.328-.607.328.607a.691.691 0 1 1-.658-1.216h.011l.043-.023.168-.1c.148-.084.359-.208.613-.364a22.187 22.187 0 0 0 1.859-1.273 11.113 11.113 0 0 0 1.8-1.679 1.939 1.939 0 0 0 0-3.011 11.056 11.056 0 0 0-1.8-1.678 22.126 22.126 0 0 0-1.859-1.271 23.388 23.388 0 0 0-.781-.46l-.043-.023-.01-.006m-.282-.937a.692.692 0 0 0 .282.937z" transform="translate(-306.208 -537.594)" style="fill-rule:evenodd;fill:#fff"/>
    </g>
</svg>
