<svg data-name="Group 39711" xmlns="http://www.w3.org/2000/svg" width="81.869" height="83.269" viewBox="0 0 81.869 83.269">
    <defs>
        <clipPath id="ka8pf596qa">
            <path data-name="Rectangle 175" style="fill:#6c3d8e;stroke:#6c3d8e;stroke-width:.3px" d="M0 0h81.869v83.269H0z"/>
        </clipPath>
    </defs>
    <g data-name="Group 169" style="clip-path:url(#ka8pf596qa)">
        <path data-name="Path 156" d="M37.228.023c2.842 0 5.682-.027 8.522 0 4.415.048 7.238 2.86 7.294 7.249.028 2.219.063 4.44-.028 6.656-.027.656-.669 1.294-.669 1.94 0 .867.083 2.226.6 2.506a4.516 4.516 0 0 1 2.4 3.465 10.525 10.525 0 0 1-1.367 7.683 11.647 11.647 0 0 1-2.211 2.007c-.491.435-1.157.779-1.439 1.321a23.771 23.771 0 0 1-9.073 10.018 8.065 8.065 0 0 1-8.245.2c-4.368-2.267-7.17-5.96-9.33-10.254a5.015 5.015 0 0 0-1.317-1.3 10.021 10.021 0 0 1-1.813-1.5 10.252 10.252 0 0 1-1.5-8.756 4.863 4.863 0 0 1 1.649-2.449c1.425-1.1 1.683-1.865.7-3.315a2.149 2.149 0 0 1-.234-1.134c-.016-2.485-.025-4.971.007-7.457A6.866 6.866 0 0 1 27.907.042c3.106-.083 6.214-.017 9.32-.019m-.09 15.84h-9.719c-3.348 0-3.319.007-3.98 3.312-.084.418-.676 1.044-1.025 1.038a1.46 1.46 0 0 0-1.57 1.31 8.933 8.933 0 0 0 1.13 7.394c.259.405.838.907 1.226.873 1.209-.107 1.5.657 1.858 1.507a19.839 19.839 0 0 0 8.193 9.842 6.723 6.723 0 0 0 7.744-.2 22.891 22.891 0 0 0 8.106-9.814c.385-.843.664-1.648 1.9-1.342.293.072.846-.315 1.069-.637a8.577 8.577 0 0 0 1.155-7.963 1.717 1.717 0 0 0-1.245-.881c-.834-.081-1.194-.4-1.259-1.2-.048-.616-.223-1.222-.275-1.84-.093-1.091-.6-1.447-1.729-1.425-3.86.076-7.722.029-11.583.029M22.98 13.92h28.176V10.4H28.98c-.726 0-1.708.186-1.7-.937.007-1.051.948-.842 1.628-.849 1.687-.016 3.373 0 5.061 0q7.989 0 15.981-.012c.593 0 1.226.164 1.321-.827a5.223 5.223 0 0 0-5.085-5.9q-9.055-.078-18.112 0a4.974 4.974 0 0 0-5.062 4.668c-.153 2.427-.033 4.871-.033 7.391" transform="translate(3.839 .001)" style="fill:#6c3d8e;stroke:#6c3d8e;stroke-width:.3px"/>
        <path data-name="Path 157" d="M40.973 43.2c2.033-1.833 4-3.611 5.971-5.381 1.345-1.207 1.541-1.2 2.85.029 1.878 1.759 3.74 3.536 5.658 5.25a2.655 2.655 0 0 0 1.5.634c5.364.3 10.438 1.526 14.92 4.628 6.012 4.16 9.131 10.023 9.783 17.206.256 2.82.154 5.671.211 8.509.013.685.013 1.473-.9 1.495-.95.022-.887-.793-.911-1.464a83.459 83.459 0 0 0-.415-9.688c-1.5-9.686-7.912-16.207-17.484-18.185-.868-.18-1.747-.307-2.62-.462-2.147-.383-3.982-.152-5.581 1.7s-3.571 3.318-5.331 5.007c-.87.837-1.5.833-2.277-.139-1.714-2.139-3.511-4.211-5.4-6.458-1.5 1.778-2.919 3.456-4.333 5.139-.344.406-.669.828-1.01 1.237-.958 1.15-1.249 1.184-2.353.176-2.228-2.034-4.406-4.124-6.684-6.1a3.146 3.146 0 0 0-2-.665 24.544 24.544 0 0 0-13.622 4.308 20.761 20.761 0 0 0-8.918 15.8c-.24 2.555-.139 5.142-.192 7.713a3.758 3.758 0 0 1-.035 1.18 3.677 3.677 0 0 1-.749.922c-.332-.286-.943-.562-.955-.861-.31-7.891-.157-15.7 5.323-22.191 4.515-5.35 10.449-7.959 17.289-8.558 2.121-.187 3.884-.6 5.356-2.291 1.332-1.53 2.974-2.787 4.446-4.2a1.28 1.28 0 0 1 2.057-.029c1.718 1.606 3.482 3.161 5.23 4.733.357.319.729.622 1.178 1m6.6 7.764 6.857-6.305-6.091-5.666-6.141 5.545 5.37 6.428m-13.236 0 5.355-6.435-6.139-5.537-6.067 5.671 6.849 6.3" transform="translate(0 7.591)" style="fill:#6c3d8e;stroke:#6c3d8e;stroke-width:.3px"/>
        <path data-name="Path 158" d="M23.331 70.388c-2.851-.017-4.89-2.031-4.566-4.513.389-2.965 4.607-4.485 7.358-2.637a2.684 2.684 0 0 1 1.054.98c.52 1.295 1.5 1.359 2.679 1.348q7.451-.069 14.9 0a2.112 2.112 0 0 0 2.129-1.128 4.7 4.7 0 0 1 5.531-1.759 4 4 0 0 1 3.039 3.752c.007 2.912-3.54 4.9-6.555 3.6a4.652 4.652 0 0 1-2.01-1.631 2.029 2.029 0 0 0-2.015-1.069c-5.278.041-10.556.03-15.834.006a1.531 1.531 0 0 0-1.576.876 4.378 4.378 0 0 1-4.134 2.18m-.041-1.812c1.622.018 2.886-.9 2.912-2.123.024-1.183-1.335-2.257-2.837-2.244-1.576.016-2.852 1.026-2.828 2.239s1.2 2.111 2.754 2.128m27.434 0c1.617.042 2.891-.862 2.936-2.083s-1.239-2.278-2.783-2.298c-1.507-.017-2.861 1.019-2.883 2.205-.023 1.169 1.186 2.131 2.729 2.172" transform="translate(3.851 12.833)" style="fill:#6c3d8e;stroke:#6c3d8e;stroke-width:.3px"/>
        <path data-name="Path 159" d="M55.655 56.412c-.128 3.05-3.769 5.092-6.808 3.7a12.982 12.982 0 0 1-2.183-1.839 2.923 2.923 0 0 0-1.449-.8q-8.118-.085-16.238 0a2.043 2.043 0 0 0-1.414.822 5.1 5.1 0 0 1-7.042 1.429 3.7 3.7 0 0 1 .217-6.466 5.057 5.057 0 0 1 6.888 1.642 1.754 1.754 0 0 0 1.215.71q8.252.067 16.5-.017a2.07 2.07 0 0 0 1.365-.9 5.014 5.014 0 0 1 7.836-.471 11.21 11.21 0 0 1 1.109 2.194m-35.125.122c-.02 1.407 1.765 2.506 3.5 2.156 1.355-.275 2.268-1.243 2.164-2.3-.117-1.2-1.426-2.058-3.03-1.982a2.493 2.493 0 0 0-2.634 2.124m30.359 2.218c1.585-.028 2.814-1.042 2.769-2.283s-1.3-2.117-2.937-2.069c-1.538.045-2.742 1-2.728 2.175.013 1.192 1.36 2.2 2.9 2.177" transform="translate(3.85 10.802)" style="fill:#6c3d8e;stroke:#6c3d8e;stroke-width:.3px"/>
    </g>
</svg>
