<svg data-name="Group 39710" xmlns="http://www.w3.org/2000/svg" width="86.739" height="85.35" viewBox="0 0 86.739 85.35">
    <defs>
        <clipPath id="mnz1435dsa">
            <path data-name="Rectangle 117" style="fill:#62588d" d="M0 0h86.739v85.35H0z"/>
        </clipPath>
    </defs>
    <g data-name="Group 113" style="clip-path:url(#mnz1435dsa)">
        <path data-name="Path 128" d="M0 55.2c.516-2.184 1.975-3.713 3.507-5.239Q20.382 33.147 37.2 16.268a3.189 3.189 0 0 1 2.761-1.06c4.074.339 8.156.574 12.235.847.189.012.38 0 .651 0v-2.811A12.945 12.945 0 0 1 64.141.153a1.73 1.73 0 0 0 .38-.153h2.541c.628.134 1.261.25 1.883.407a12.854 12.854 0 0 1 9.8 12.2c.095 4.57.028 9.144.032 13.715 0 3.9 2.061 6.03 5.995 6.21 1.542.071 2.466 1.429 1.677 2.57a2.027 2.027 0 0 1-1.363.818c-4.177.157-8.4-2.172-9.455-6.707a11.036 11.036 0 0 1-.252-2.428c-.024-4.544-.006-9.087-.014-13.632a9.531 9.531 0 0 0-18.995-1.274c-.111 1.233-.056 2.481-.128 3.719-.035.607.224.774.773.806 2.816.169 5.628.378 8.443.537 1.754.1 2.269.585 2.419 2.354q.923 10.873 1.85 21.745c.139 1.629.246 3.262.386 4.89a2.065 2.065 0 0 1-.668 1.74q-17.79 17.772-35.573 35.55a6.875 6.875 0 0 1-9.818.132c-1.907-1.8-3.733-3.691-5.577-5.558a1.705 1.705 0 0 1-.116-2.493 1.724 1.724 0 0 1 2.557.1c1.749 1.723 3.473 3.471 5.214 5.2a3.569 3.569 0 0 0 5.513.012q17.28-17.265 34.532-34.557a1.561 1.561 0 0 0 .391-1.094c-.417-5.256-.876-10.508-1.319-15.761-.247-2.923-.483-5.845-.733-8.875l-8.255-.577c0 1.983-.023 3.866.032 5.746.006.208.425.452.7.6a5.247 5.247 0 0 1 2.685 5.705 5.218 5.218 0 1 1-7.441-5.717.957.957 0 0 0 .627-1.021c-.033-1.826-.012-3.652-.012-5.527-1.854-.139-3.619-.277-5.383-.4-2.335-.164-4.672-.3-7.005-.491a1.433 1.433 0 0 0-1.257.475Q21.943 36.407 4.665 53.673a3.56 3.56 0 0 0-.021 5.446c1.748 1.764 3.514 3.509 5.264 5.272a1.659 1.659 0 0 1 .387 2.082 1.544 1.544 0 0 1-1.754.885 2.281 2.281 0 0 1-1.083-.592C5.6 64.95 3.782 63.1 1.944 61.265A8.523 8.523 0 0 1 0 57.575zm54.591-22.669a1.792 1.792 0 1 0-.059-3.584 1.792 1.792 0 0 0 .059 3.584" style="fill:#62588d"/>
        <path data-name="Path 129" d="M29.094 61.877a5.537 5.537 0 0 1-5.5-6.705 7.287 7.287 0 0 1 6.467-5.966 5.653 5.653 0 0 1 6.055 6.65 7.232 7.232 0 0 1-7.02 6.021m3.67-7a2.209 2.209 0 0 0-2.433-2.223 3.839 3.839 0 0 0-3.439 3.481 2.182 2.182 0 0 0 2.038 2.354 3.843 3.843 0 0 0 3.834-3.612" transform="translate(2.965 6.208)" style="fill:#62588d"/>
        <path data-name="Path 130" d="M37.852 36.7a7.1 7.1 0 0 1-8.056 6.96 5.614 5.614 0 0 1-4.479-6.945 7.233 7.233 0 0 1 7.856-5.57 5.5 5.5 0 0 1 4.679 5.555m-9.228 1.337a2.068 2.068 0 0 0 2.231 2.284 3.773 3.773 0 0 0 3.568-3.142 2.226 2.226 0 0 0-2.6-2.669 3.807 3.807 0 0 0-3.2 3.527" transform="translate(3.177 3.925)" style="fill:#62588d"/>
        <path data-name="Path 131" d="M20.337 52.86a1.727 1.727 0 0 1-1.857-1.292 1.626 1.626 0 0 1 1.035-1.978c1.68-.719 3.378-1.4 5.07-2.091l17.73-7.249a1.838 1.838 0 0 1 2.125.2 1.424 1.424 0 0 1 .44 1.756 2.861 2.861 0 0 1-1.3 1.2c-5.734 2.393-11.491 4.732-17.241 7.085-1.743.714-3.487 1.429-5.235 2.133a7.81 7.81 0 0 1-.773.24" transform="translate(2.325 5.05)" style="fill:#62588d"/>
        <path data-name="Path 132" d="M11.118 63.321a1.621 1.621 0 0 1 1.7-1.675 1.67 1.67 0 0 1 1.682 1.641 1.725 1.725 0 0 1-1.686 1.738 1.665 1.665 0 0 1-1.7-1.7" transform="translate(1.403 7.781)" style="fill:#62588d"/>
    </g>
</svg>
