<svg data-name="Group 39975" xmlns="http://www.w3.org/2000/svg" width="35.305" height="34.74" viewBox="0 0 35.305 34.74">
    <defs>
        <clipPath id="plynqjrxna">
            <path data-name="Rectangle 117" style="fill:#6c3d8e" d="M0 0h35.305v34.74H0z"/>
        </clipPath>
    </defs>
    <g data-name="Group 113" style="clip-path:url(#plynqjrxna)">
        <path data-name="Path 128" d="M0 22.47a4.549 4.549 0 0 1 1.427-2.132Q8.3 13.492 15.141 6.622a1.3 1.3 0 0 1 1.124-.431c1.658.138 3.32.234 4.98.345.077.005.154 0 .265 0V5.392a5.269 5.269 0 0 1 4.6-5.329.7.7 0 0 0 .152-.063H27.3c.256.055.513.1.766.165a5.232 5.232 0 0 1 3.99 4.966c.039 1.86.011 3.722.013 5.582a2.281 2.281 0 0 0 2.44 2.528c.628.029 1 .582.683 1.046a.825.825 0 0 1-.555.333 3.667 3.667 0 0 1-3.848-2.73 4.492 4.492 0 0 1-.1-.988c-.01-1.85 0-3.7-.006-5.548a3.879 3.879 0 0 0-7.731-.518c-.045.5-.023 1.01-.052 1.514-.014.247.091.315.314.328 1.146.069 2.291.154 3.437.219.714.04.924.238.985.958q.373 4.425.752 8.851c.056.663.1 1.328.157 1.99a.841.841 0 0 1-.272.708q-7.241 7.234-14.479 14.47a2.8 2.8 0 0 1-4 .054c-.776-.734-1.52-1.5-2.27-2.262a.694.694 0 0 1-.047-1.015.7.7 0 0 1 1.041.043c.712.7 1.414 1.413 2.122 2.117a1.453 1.453 0 0 0 2.244.005q7.033-7.027 14.055-14.065a.635.635 0 0 0 .159-.445c-.17-2.139-.357-4.277-.537-6.415-.1-1.19-.2-2.379-.3-3.612L22.9 8.042c0 .807-.009 1.574.013 2.339 0 .085.173.184.283.243a2.136 2.136 0 0 1 1.093 2.322 2.124 2.124 0 1 1-3.029-2.327.39.39 0 0 0 .255-.416c-.013-.743-.005-1.487-.005-2.25-.755-.056-1.473-.113-2.191-.164-.95-.067-1.9-.123-2.851-.2a.583.583 0 0 0-.512.193Q8.931 14.819 1.9 21.846a1.449 1.449 0 0 0-.009 2.217c.711.718 1.43 1.428 2.143 2.146a.675.675 0 0 1 .158.848.628.628 0 0 1-.714.36.928.928 0 0 1-.441-.241c-.755-.739-1.5-1.493-2.244-2.239A3.469 3.469 0 0 1 0 23.435zm22.22-9.229a.729.729 0 1 0-.024-1.459.729.729 0 0 0 .024 1.459" style="fill:#6c3d8e"/>
        <path data-name="Path 129" d="M25.77 54.349a2.254 2.254 0 0 1-2.239-2.729 2.966 2.966 0 0 1 2.632-2.428 2.3 2.3 0 0 1 2.464 2.708 2.944 2.944 0 0 1-2.857 2.451m1.494-2.851a.9.9 0 0 0-.99-.9 1.563 1.563 0 0 0-1.4 1.417.888.888 0 0 0 .83.958 1.564 1.564 0 0 0 1.56-1.47" transform="translate(-12.722 -26.636)" style="fill:#6c3d8e"/>
        <path data-name="Path 130" d="M30.333 33.376a2.89 2.89 0 0 1-3.279 2.833 2.285 2.285 0 0 1-1.823-2.827 2.944 2.944 0 0 1 3.2-2.267 2.237 2.237 0 0 1 1.9 2.261m-3.756.544a.842.842 0 0 0 .908.93 1.536 1.536 0 0 0 1.452-1.279.906.906 0 0 0-1.059-1.086 1.55 1.55 0 0 0-1.3 1.436" transform="translate(-13.633 -16.84)" style="fill:#6c3d8e"/>
        <path data-name="Path 131" d="M19.2 45.24a.7.7 0 0 1-.756-.526.662.662 0 0 1 .421-.8c.684-.292 1.375-.569 2.064-.851l7.217-2.951a.748.748 0 0 1 .865.081.579.579 0 0 1 .179.715 1.165 1.165 0 0 1-.527.488c-2.334.974-4.677 1.926-7.018 2.884-.71.291-1.419.582-2.131.868a3.179 3.179 0 0 1-.314.1" transform="translate(-9.977 -21.669)" style="fill:#6c3d8e"/>
        <path data-name="Path 132" d="M11.118 62.328a.66.66 0 0 1 .694-.682.68.68 0 0 1 .683.668.7.7 0 0 1-.686.707.678.678 0 0 1-.69-.694" transform="translate(-6.022 -33.387)" style="fill:#6c3d8e"/>
    </g>
</svg>
