<svg xmlns="http://www.w3.org/2000/svg" width="61" height="60.471" viewBox="0 0 61 60.471">
    <defs>
        <clipPath id="fe998z6mma">
            <rect data-name="Rectangle 196" width="61" height="59.644" rx="20" style="fill:#fff"/>
        </clipPath>
    </defs>
    <g data-name="Group 39717">
        <g data-name="Group 178" style="clip-path:url(#fe998z6mma)">
            <path data-name="Path 180" d="M325 561.075a.842.842 0 0 1 .841-.843h16.836a.842.842 0 1 1 0 1.684h-16.836a.841.841 0 0 1-.841-.841z" transform="translate(-303.582 -531.093)" style="fill:#61578c;fill-rule:evenodd"/>
            <path data-name="Path 181" d="M331.812 556.156a.842.842 0 0 1 1.14-.341l-.4.741.4-.741.016.009.061.034c.052.028.129.072.226.127.192.109.465.269.792.47a28.949 28.949 0 0 1 2.406 1.646 15.171 15.171 0 0 1 2.474 2.314 3.982 3.982 0 0 1 0 5.8 15.115 15.115 0 0 1-2.474 2.314 28.655 28.655 0 0 1-2.406 1.648c-.326.2-.6.361-.792.471l-.226.127-.061.033-.016.009-.4-.739.4.739a.841.841 0 1 1-.8-1.48l.013-.006.052-.028.205-.117c.18-.1.437-.253.747-.443a27 27 0 0 0 2.263-1.549 13.524 13.524 0 0 0 2.194-2.044 2.361 2.361 0 0 0 0-3.665 13.461 13.461 0 0 0-2.194-2.043 26.941 26.941 0 0 0-2.263-1.547 24.504 24.504 0 0 0-.952-.559l-.052-.029-.012-.007m-.343-1.14a.842.842 0 0 0 .343 1.14z" transform="translate(-300.25 -533.337)" style="fill:#61578c;fill-rule:evenodd"/>
        </g>
        <path data-name="Path 262" d="M26.433 0h5.5a26.433 26.433 0 0 1 26.432 26.433v5.5a26.433 26.433 0 0 1-26.434 26.432h-5.5A26.433 26.433 0 0 1 0 31.931v-5.5A26.433 26.433 0 0 1 26.433 0z" transform="translate(1.215 1.107)" style="fill:none;stroke:#61578c;stroke-width:2px"/>
    </g>
</svg>
