<svg width="246" height="72" viewBox="0 0 246 72" fill="none" xmlns="http://www.w3.org/2000/svg">
<path d="M236.711 71.0132H9.10427C4.0992 71.0132 0 67.0165 0 62.1365V8.87655C0 3.99661 4.0992 -0.000108823 9.10427 -0.000108823H236.711C241.716 -0.000108823 245.815 3.99661 245.815 8.87655V62.1365C245.815 67.0165 241.716 71.0132 236.711 71.0132Z" fill="black"/>
<path d="M236.711 1.42237C240.926 1.42237 244.356 4.76666 244.356 8.87655V62.1365C244.356 66.2464 240.926 69.5907 236.711 69.5907H9.10427C4.88899 69.5907 1.45896 66.2464 1.45896 62.1365V8.87655C1.45896 4.76666 4.88899 1.42237 9.10427 1.42237H236.711ZM236.711 -0.000108823H9.10427C4.0992 -0.000108823 0 3.99661 0 8.87655V62.1365C0 67.0165 4.0992 71.0132 9.10427 71.0132H236.711C241.716 71.0132 245.815 67.0165 245.815 62.1365V8.87655C245.815 3.99661 241.716 -0.000108823 236.711 -0.000108823Z" fill="#A6A6A6"/>
<path d="M19.0007 13.3839C18.4658 13.9298 18.1562 14.7797 18.1562 15.8804V55.1419C18.1562 56.2426 18.4658 57.0925 19.0007 57.6385L19.1327 57.7583L41.6976 35.7664V35.2471L19.1327 13.2552L19.0007 13.3839Z" fill="url(#paint0_linear_268_939)"/>
<path d="M49.2106 43.1006L41.6973 35.7662V35.247L49.2197 27.9126L49.3881 28.008L58.2966 32.9501C60.839 34.3526 60.839 36.6606 58.2966 38.072L49.3881 43.0052L49.2106 43.1006V43.1006Z" fill="url(#paint1_linear_268_939)"/>
<path d="M49.3883 43.0053L41.6974 35.5067L19.0005 57.6384C19.8449 58.5039 21.2219 58.6082 22.7879 57.7427L49.3883 43.0053" fill="url(#paint2_linear_268_939)"/>
<path d="M49.3883 28.008L22.7879 13.2706C21.2219 12.414 19.8449 12.5183 19.0005 13.3837L41.6974 35.5066L49.3883 28.008Z" fill="url(#paint3_linear_268_939)"/>
<path d="M86.3403 18.1861C86.3403 19.6685 85.8851 20.8558 84.9884 21.7413C83.9573 22.7909 82.6144 23.3191 80.9688 23.3191C79.3961 23.3191 78.0532 22.782 76.9516 21.7235C75.8477 20.6494 75.2969 19.3312 75.2969 17.7534C75.2969 16.1756 75.8477 14.8574 76.9516 13.7922C78.0532 12.7248 79.3961 12.1877 80.9688 12.1877C81.7518 12.1877 82.4983 12.3453 83.2108 12.6382C83.9209 12.9334 84.499 13.3328 84.9178 13.8255L83.9664 14.762C83.2358 13.9209 82.2412 13.5059 80.9688 13.5059C79.8217 13.5059 78.8271 13.8965 77.9826 14.6843C77.1473 15.4743 76.7285 16.4974 76.7285 17.7534C76.7285 19.0095 77.1473 20.0414 77.9826 20.8314C78.8271 21.6103 79.8217 22.0098 80.9688 22.0098C82.1865 22.0098 83.2108 21.6103 84.0188 20.8225C84.5514 20.301 84.8541 19.582 84.9337 18.6633H80.9688V17.3806H86.2584C86.3221 17.658 86.3403 17.9265 86.3403 18.1861V18.1861Z" fill="white" stroke="white" stroke-width="0.218502" stroke-miterlimit="10"/>
<path d="M94.7327 13.7387H89.764V17.1119H94.2433V18.3945H89.764V21.7677H94.7327V23.0748H88.3574V12.4316H94.7327V13.7387Z" fill="white" stroke="white" stroke-width="0.218502" stroke-miterlimit="10"/>
<path d="M100.654 23.0748H99.2478V13.7387H96.2002V12.4316H103.704V13.7387H100.654V23.0748V23.0748Z" fill="white" stroke="white" stroke-width="0.218502" stroke-miterlimit="10"/>
<path d="M109.135 23.0748V12.4316H110.54V23.0748H109.135Z" fill="white" stroke="white" stroke-width="0.218502" stroke-miterlimit="10"/>
<path d="M116.765 23.0748H115.37V13.7387H112.311V12.4316H119.824V13.7387H116.765V23.0748Z" fill="white" stroke="white" stroke-width="0.218502" stroke-miterlimit="10"/>
<path d="M134.031 21.7057C132.955 22.782 131.621 23.3191 130.03 23.3191C128.43 23.3191 127.096 22.782 126.019 21.7057C124.945 20.6317 124.41 19.3135 124.41 17.7534C124.41 16.1933 124.945 14.8752 126.019 13.8011C127.096 12.7248 128.43 12.1877 130.03 12.1877C131.612 12.1877 132.945 12.7248 134.022 13.81C135.105 14.8929 135.64 16.2022 135.64 17.7534C135.64 19.3135 135.105 20.6317 134.031 21.7057ZM127.06 20.8136C127.87 21.6103 128.855 22.0098 130.03 22.0098C131.195 22.0098 132.19 21.6103 132.991 20.8136C133.799 20.017 134.209 18.9939 134.209 17.7534C134.209 16.5129 133.799 15.4899 132.991 14.6932C132.19 13.8965 131.195 13.4971 130.03 13.4971C128.855 13.4971 127.87 13.8965 127.06 14.6932C126.251 15.4899 125.842 16.5129 125.842 17.7534C125.842 18.9939 126.251 20.017 127.06 20.8136V20.8136Z" fill="white" stroke="white" stroke-width="0.218502" stroke-miterlimit="10"/>
<path d="M137.614 23.0748V12.4316H139.321L144.629 20.7091H144.69L144.629 18.6631V12.4316H146.033V23.0748H144.567L139.009 14.3889H138.948L139.009 16.4439V23.0748H137.614V23.0748Z" fill="white" stroke="white" stroke-width="0.218502" stroke-miterlimit="10"/>
<path d="M124.064 38.6178C119.787 38.6178 116.294 41.7912 116.294 46.1696C116.294 50.5125 119.787 53.7192 124.064 53.7192C128.35 53.7192 131.844 50.5125 131.844 46.1696C131.844 41.7912 128.35 38.6178 124.064 38.6178ZM124.064 50.7456C121.717 50.7456 119.699 48.857 119.699 46.1696C119.699 43.4467 121.717 41.5915 124.064 41.5915C126.411 41.5915 128.439 43.4467 128.439 46.1696C128.439 48.857 126.411 50.7456 124.064 50.7456V50.7456ZM107.11 38.6178C102.824 38.6178 99.3391 41.7912 99.3391 46.1696C99.3391 50.5125 102.824 53.7192 107.11 53.7192C111.393 53.7192 114.88 50.5125 114.88 46.1696C114.88 41.7912 111.393 38.6178 107.11 38.6178ZM107.11 50.7456C104.761 50.7456 102.735 48.857 102.735 46.1696C102.735 43.4467 104.761 41.5915 107.11 41.5915C109.456 41.5915 111.475 43.4467 111.475 46.1696C111.475 48.857 109.456 50.7456 107.11 50.7456ZM86.9346 40.9324V44.1413H94.7938C94.5639 45.9344 93.9494 47.2526 93.0071 48.1713C91.86 49.2809 90.0733 50.5125 86.9346 50.5125C82.0979 50.5125 78.3106 46.7067 78.3106 41.9909C78.3106 37.2752 82.0979 33.4694 86.9346 33.4694C89.5498 33.4694 91.4526 34.4658 92.8569 35.7573L95.1762 33.496C93.212 31.6674 90.599 30.2627 86.9346 30.2627C80.3021 30.2627 74.728 35.5243 74.728 41.9909C74.728 48.4576 80.3021 53.7192 86.9346 53.7192C90.5194 53.7192 93.212 52.5741 95.3287 50.426C97.4978 48.3111 98.1738 45.3374 98.1738 42.9363C98.1738 42.1907 98.1101 41.5049 97.9963 40.9324H86.9346ZM169.433 43.4201C168.793 41.7313 166.82 38.6178 162.8 38.6178C158.817 38.6178 155.501 41.678 155.501 46.1696C155.501 50.3994 158.783 53.7192 163.183 53.7192C166.74 53.7192 168.793 51.6044 169.638 50.3727L166.997 48.6573C166.117 49.9134 164.917 50.7456 163.183 50.7456C161.46 50.7456 160.224 49.9755 159.432 48.4576L169.79 44.2789L169.433 43.4201V43.4201ZM158.872 45.9344C158.783 43.0229 161.191 41.5316 162.916 41.5316C164.268 41.5316 165.416 42.1907 165.798 43.1338L158.872 45.9344V45.9344ZM150.453 53.2599H153.858V31.0682H150.453V53.2599ZM144.876 40.2999H144.763C143.998 39.4167 142.539 38.6178 140.691 38.6178C136.812 38.6178 133.266 41.9377 133.266 46.194C133.266 50.426 136.812 53.7192 140.691 53.7192C142.539 53.7192 143.998 52.9137 144.763 52.0038H144.876V53.0868C144.876 55.9739 143.295 57.5251 140.743 57.5251C138.663 57.5251 137.372 56.0604 136.84 54.8288L133.878 56.0338C134.732 58.0355 136.992 60.4988 140.743 60.4988C144.735 60.4988 148.104 58.2086 148.104 52.6363V39.0772H144.876V40.2999V40.2999ZM140.982 50.7456C138.635 50.7456 136.671 48.8304 136.671 46.194C136.671 43.5333 138.635 41.5915 140.982 41.5915C143.295 41.5915 145.118 43.5333 145.118 46.194C145.118 48.8304 143.295 50.7456 140.982 50.7456V50.7456ZM185.374 31.0682H177.231V53.2599H180.627V44.8514H185.374C189.146 44.8514 192.844 42.1907 192.844 37.9587C192.844 33.729 189.137 31.0682 185.374 31.0682V31.0682ZM185.463 41.7646H180.627V34.1551H185.463C187.999 34.1551 189.446 36.2078 189.446 37.9587C189.446 39.6764 187.999 41.7646 185.463 41.7646ZM206.455 38.5756C204.002 38.5756 201.45 39.632 200.401 41.9732L203.415 43.2048C204.063 41.9732 205.256 41.5737 206.517 41.5737C208.278 41.5737 210.065 42.6057 210.093 44.4276V44.6606C209.478 44.3144 208.162 43.8018 206.544 43.8018C203.298 43.8018 199.991 45.5438 199.991 48.7949C199.991 51.7686 202.65 53.6837 205.638 53.6837C207.923 53.6837 209.184 52.6784 209.976 51.5089H210.093V53.2244H213.372V44.7116C213.372 40.7771 210.359 38.5756 206.455 38.5756ZM206.046 50.7367C204.935 50.7367 203.387 50.1996 203.387 48.857C203.387 47.1394 205.317 46.4803 206.988 46.4803C208.483 46.4803 209.184 46.8021 210.093 47.226C209.826 49.2809 208.012 50.7367 206.046 50.7367V50.7367ZM225.322 39.0616L221.418 48.6817H221.302L217.267 39.0616H213.604L219.668 52.5053L216.208 59.9862H219.757L229.1 39.0616H225.322V39.0616ZM194.711 53.2599H198.116V31.0682H194.711V53.2599Z" fill="white"/>
<defs>
<linearGradient id="paint0_linear_268_939" x1="39.6941" y1="55.5508" x2="9.90932" y2="25.0023" gradientUnits="userSpaceOnUse">
<stop stop-color="#00A0FF"/>
<stop offset="0.0066" stop-color="#00A1FF"/>
<stop offset="0.2601" stop-color="#00BEFF"/>
<stop offset="0.5122" stop-color="#00D2FF"/>
<stop offset="0.7604" stop-color="#00DFFF"/>
<stop offset="1" stop-color="#00E3FF"/>
</linearGradient>
<linearGradient id="paint1_linear_268_939" x1="61.6072" y1="35.5041" x2="17.5482" y2="35.5041" gradientUnits="userSpaceOnUse">
<stop stop-color="#FFE000"/>
<stop offset="0.4087" stop-color="#FFBD00"/>
<stop offset="0.7754" stop-color="#FFA500"/>
<stop offset="1" stop-color="#FF9C00"/>
</linearGradient>
<linearGradient id="paint2_linear_268_939" x1="45.2062" y1="31.4304" x2="4.81561" y2="-9.99589" gradientUnits="userSpaceOnUse">
<stop stop-color="#FF3A44"/>
<stop offset="1" stop-color="#C31162"/>
</linearGradient>
<linearGradient id="paint3_linear_268_939" x1="13.2872" y1="70.7004" x2="31.3234" y2="52.2019" gradientUnits="userSpaceOnUse">
<stop stop-color="#32A071"/>
<stop offset="0.0685" stop-color="#2DA771"/>
<stop offset="0.4762" stop-color="#15CF74"/>
<stop offset="0.8009" stop-color="#06E775"/>
<stop offset="1" stop-color="#00F076"/>
</linearGradient>
</defs>
</svg>
