<svg xmlns="http://www.w3.org/2000/svg" width="201.181" height="71.066" viewBox="0 0 201.181 71.066">
    <defs>
        <clipPath id="ccvx0nekga">
            <path data-name="Rectangle 9" style="fill:#62588d" d="M0 0h201.181v71.066H0z"/>
        </clipPath>
    </defs>
    <g data-name="Group 39709">
        <g data-name="Group 8">
            <g data-name="Group 7" style="clip-path:url(#ccvx0nekga)">
                <path data-name="Path 13" d="M38.815.229a14.4 14.4 0 0 1 2.669.476h.308a2.455 2.455 0 0 0 .991-.375l.546.276a4.76 4.76 0 0 1 1.1-.139c.431.092.58.139.445.139V.33a6.363 6.363 0 0 0 1.366.515h.618q.1 0 1.229-.31.034.31 0 .31h1.231c.593.022.89.09.89.2l.613-.067h.1a2.374 2.374 0 0 1 1.027.171c0-.047.148-.07.443-.07h.274a2.959 2.959 0 0 0 1.505.375l.308-.171 2.941.892a1.583 1.583 0 0 1 .683-.1c0 .135.526.353 1.575.649a2.962 2.962 0 0 0 1.366.717v.924H60.5q-7.011-.991-7.011-1.505h.238a2.005 2.005 0 0 1-1.231.377c0-.092.151-.137.447-.137v.31l-.618-.31h-.546a7.586 7.586 0 0 1-1.233-.1 4.659 4.659 0 0 1-1.027.1 18.121 18.121 0 0 0-2.53-.339.12.12 0 0 1 .137.135l-.926-.135h-.342a1.5 1.5 0 0 0-.582.1l-.786-.1h-1.469c-.249 0-.375.02-.375.067l.1-.067h-5.88A77.733 77.733 0 0 0 23.05 4.572a16.353 16.353 0 0 1-3.829 7.8q-6.738 6.771-13.406 6.772H5.1a5.177 5.177 0 0 1-4.685-2.6A5.412 5.412 0 0 1 0 14.284a6.809 6.809 0 0 1 2.292-3.523 6.457 6.457 0 0 1 2.052-1.5L5.4 8.437l.375.171h-.1q0-.957 3.454-1.914v.375c-.09 0-.135-.193-.135-.582q3.387-1.709 4.548-1.71l.137.067a3.571 3.571 0 0 1 2.393-.683V4.3h-.306v.2l-.207-.546a9.965 9.965 0 0 0 2.873-1.024 1.419 1.419 0 0 1 .618.1l2.05-.851.274.135 3.215-.714a1.149 1.149 0 0 0 .445.1h.1q4.21-.854 4.655-.855l.2.137.616-.137a10.2 10.2 0 0 0 1.061.137V.638l.582.344h.135a.514.514 0 0 0 .277-.447l1.368.31c0-.047.2-.182.616-.411.2.115.285.173.238.173v-.14c.434 0 .649.036.649.1l1.231-.1h.375c.254 0 .377-.022.377-.067-.067.045-.034.067.1.067a2.12 2.12 0 0 1 .786.238.461.461 0 0 0 .409-.476M2.771 15.037v.137q0 1.47 2.8 1.813h.2l.856-.137a.854.854 0 0 0 .479.137 2.593 2.593 0 0 1 1.366-.479l.173.067a9.638 9.638 0 0 0 2.222-1.027 20.339 20.339 0 0 0 6.568-5.1q2.767-3.964 2.768-5.231c-.16 0-.238-.045-.238-.137q-.31 0-6.534 2.052-10.671 4.756-10.669 7.9M34.37 3.411a2.342 2.342 0 0 1 1.78 2.564 195.644 195.644 0 0 1-5.815 20.895q-.445.89-2.7 8.345-.512.236-1.2 3.829A11.37 11.37 0 0 0 25.2 42.19q-1.78 5.541-2.359 5.541c0-.137.047.034.137.515q-1.025 2.973-1.643 3.418c.022 0 .036-.056.036-.171l.171 1.164q-.411 0-.685 1.607h-.888v-.854H19.6V53a2.434 2.434 0 0 1 .753-1.438v.1c-.344 0-.515-.135-.515-.409a14.4 14.4 0 0 0 .753-2.189c0 .09-.09.135-.272.135l1.332-3.588-.067-.171a6.524 6.524 0 0 1 .58-1.645 1.532 1.532 0 0 1-.1-.649q.31-.034.685-1.263c.047 0 .067.067.067.2a1.659 1.659 0 0 1-.135-.82.314.314 0 0 0 .342-.2l-.135-.274a10.481 10.481 0 0 0 .989-2.735h.377l-.1-.07c0 .047-.034.07-.1.07v-.684a1.715 1.715 0 0 0 .344-.822 1.309 1.309 0 0 1-.1-.58c.317-.912.568-1.371.75-1.371q0-.273 2.564-8.377c0-.182.171-.445.515-.789 0-.2-.011-.306-.036-.306l-.1-.344q.909-3.181 1.319-3.246.135 0 .135.1l-.238-.375a8.052 8.052 0 0 1 .854-2.8 5.675 5.675 0 0 1-.1-.786 4.667 4.667 0 0 0 .717-1.847l-.135-.308a7.088 7.088 0 0 0 .888-2.362.748.748 0 0 0-.171-.409 27.365 27.365 0 0 0 1.881-8.55zm-8.788 32.795h.031q-.1 0-.1.034v.137h.07zm2.186-6.395H27.5v.31h.272z" transform="translate(0 .286)" style="fill:#62588d"/>
                <path data-name="Path 14" d="M27.647 7.58q.718 0 1.4 1.744 0 1.436-3.726 7.08a10.964 10.964 0 0 0-1.267 4.308c0 .389.229.582.685.582h.582q3.111-.991 9.473-7.934a1.119 1.119 0 0 0 1.062-1.16c.022-.162.1-.24.24-.24h.1c.11 0 .225.115.339.344v.339a4.824 4.824 0 0 1-1.263 2.087q-.516 1.608-4.483 5.505a16.32 16.32 0 0 1-5.368 3.386h-.441a3.509 3.509 0 0 1-3.624-2.225c0-.227-.034-.342-.1-.342.07-.3.148-.443.24-.443l-.137-.24v-.82q.377-2.187 3.283-6.053a5.267 5.267 0 0 1 1.128-1.609 5.233 5.233 0 0 0 .717-1.741v-.139h-.476a10.5 10.5 0 0 1-4.993 1.541h-.1a16.306 16.306 0 0 0-1.881 2.323 1.456 1.456 0 0 1-.685.207h-.1q-.613 0-1.058-.926c.045-.409.4-.831 1.058-1.265a1.4 1.4 0 0 1 .207-.58l-.786-.924v-.137a1.424 1.424 0 0 1 .786-1.162h.82l1.746-.445.82.58a27.171 27.171 0 0 0 4.892-1.537 4.15 4.15 0 0 0 .921-.1" transform="translate(21.427 9.452)" style="fill:#62588d"/>
                <path data-name="Path 15" d="M27.846 15.326h.274a1.149 1.149 0 0 1 1.1.685v.409q-2.329 4.378-2.326 7.116v1.5a1.569 1.569 0 0 0 .82 1.505h1.094q1.81 0 6.429-4.1.411 0 .822-.82a37.546 37.546 0 0 0 3.692-3.831c.137 0 .274-.272.411-.82a2.642 2.642 0 0 1 1.231-.548h.135c.182.022.274.115.274.276a22.251 22.251 0 0 1-4.651 7.66q-4.068 3.9-6.975 4.649l-1.368.274q-4.789-.546-4.788-4.651c-.115 0-.207-.272-.274-.82q1.028-5.4 3.011-7.251zm7.525-11.217c.957.184 1.458.274 1.505.274v.411q-.482 1.54-4.514 4.24a6.8 6.8 0 0 1-3.011 1.231q-1.368-.172-1.366-1.368 0-1.025 4.377-3.148a14.911 14.911 0 0 1 3.009-1.64" transform="translate(29.608 5.124)" style="fill:#62588d"/>
                <path data-name="Path 16" d="M38.42 8.905c1.029.3 1.586.8 1.679 1.5a33.139 33.139 0 0 0-.173 3.7h.274a23.841 23.841 0 0 0 3.694-3.146A7.4 7.4 0 0 0 45.81 10l.272.139a5.2 5.2 0 0 1 2.908-.822q1.23 0 3.283 1.914l.58 1.368q.411 3.077-3.692 6.289a28.433 28.433 0 0 1-5.505 2.876l.031.137q.071.512 2.155.685h.411a23.854 23.854 0 0 0 14.158-9.918 2.784 2.784 0 0 1 2.5-1.777v.133a17.793 17.793 0 0 1-3.386 6.193q-5.3 5.433-10.258 6.907-5.167 1.335-7.97-.717a18.077 18.077 0 0 0-2.359-2.326q-1.368 5.265-2.427 8.478a23.871 23.871 0 0 1-4.139 9.031q-2.905 3.691-3.9 3.694h-.546c-1.027-.186-1.6-.685-1.712-1.505l-.034-.411a3.786 3.786 0 0 0 .546-1.917 67.051 67.051 0 0 1 3.831-10.395q.961 0 .719-1.643c.524-.2.775-.386.753-.546l-.067-.683a28.661 28.661 0 0 0 2.494-3.831l1.234-1.092a4.381 4.381 0 0 1 .921-2.328 14.632 14.632 0 0 0 .512-4.377c.137 0 .218-.409.24-1.231l-.171-.274q-.1-3.141 1.229-3.144m-9.095 23.387.031.274h.143c.182 0 .261-.09.238-.274l-.034-.272h-.137c-.182.022-.263.112-.238.272m.409 2.052.1.688a15.2 15.2 0 0 1-.1 2.458h.137a18.8 18.8 0 0 0 3.865-8.069A25.612 25.612 0 0 0 35 25.456h-.274l-2.4 3.557a17.01 17.01 0 0 1-1.878 3.555 2.005 2.005 0 0 1-.719 1.777m3.42-9.3.034.139c.047.18.148.274.308.274l-.067-.413zm5.779-4.923h.137a4.7 4.7 0 0 0 1.3-.409 6.57 6.57 0 0 0 1.708.272h.274q1.025 0 5.233-2.6a8.113 8.113 0 0 0 2.155-4.377l-.07-.546a1.116 1.116 0 0 0-1.231-1.1q-3.077.479-8.79 6.975a5.213 5.213 0 0 0-.717 1.78" transform="translate(32.644 11.105)" style="fill:#62588d"/>
                <path data-name="Path 17" d="m57.627 0 .685.171L59.1 0a2.355 2.355 0 0 1 .616 1.164q0 .924-2.737 5.575c.045.3.171.443.378.443h2.222q.681-.3 11.7-1.162l2.155-.308.683-.171a14.922 14.922 0 0 0 2.087.171 7.312 7.312 0 0 1 2.7-.479 5.876 5.876 0 0 0 1.368.171h.546a.985.985 0 0 0 .548-.135l.234.131a12.014 12.014 0 0 1 2.087-.342 4.622 4.622 0 0 1 1.64.342 2.059 2.059 0 0 1 1.094-.342h1.643a.977.977 0 0 0 .546-.137 1 1 0 0 0 .548.137h.957a4.281 4.281 0 0 0 1.094-.137 4.311 4.311 0 0 0 1.1.137q-1.918.206 2.222.207c-.025-.025.067-.036.272-.036a1.433 1.433 0 0 1 .789-.308c1.319.09 2.083.137 2.29.137v-.1l.991.274 4.514-.308.822.137 1.708-.308.139.344 1.71-.173h1.777c.16 0 .24.058.24.173-.047 0-.07-.058-.07-.173l1.47-.171a13.842 13.842 0 0 0 1.817.172v.512l-.89-.512h.856a4.984 4.984 0 0 0 1.2-.171l.274.171 2.087-.342.649.342a.932.932 0 0 0 .479-.171c.182 0 .274.058.274.171a21.316 21.316 0 0 1 2.155-.171h2.735l.82-.171c.207.09.31.2.31.342a3.879 3.879 0 0 0 1.2-.308l.685.308c.182-.112.364-.056.546.173h.034v.443h.479c.09-.638.193-.957.308-.957h3.199l.548.957h.683a4.786 4.786 0 0 0 .171-.82c.045 0 .067.067.067.2l-.308-.342a3.242 3.242 0 0 1 1.881.957c.274 0 .411-.171.411-.515h-.411l.344-.339.409-.07q.1 1.1.89 1.094c0-.638-.445-.9-1.332-.786h2.256l-.2.786h.411a1.4 1.4 0 0 0 .991-.479 1.514 1.514 0 0 1 .921.515l.411-.24-.169-.409V5c0 .067.02.1.067.1q0-.172 1.162.613h.548q0-.512.854-.786a1.056 1.056 0 0 0 .582.137c-.207.137-.115.207.272.207 0-.115.162-.07.479.135a2.748 2.748 0 0 0 .582-.171h.515c0 .022.056-.079.171-.308h.616a2.233 2.233 0 0 1 .034.548l.308.342a1.8 1.8 0 0 1-.924-.411V5.2l.272.171c-.955.3-1.47.445-1.537.445h-.685a7.905 7.905 0 0 1-1.263-.137l-.548.308a8.027 8.027 0 0 0-1.472-.171h-.171q-.957.583-.957.238a1.752 1.752 0 0 0-.82-.238 1.334 1.334 0 0 1-.649.342l-.789-.207v.344h-.888v-.309h-.274q-.273.344-1.984.479c0-.115-.2-.171-.613-.171h-.24a8.944 8.944 0 0 1-1.914.342l-.993-.171-.512.308-.683-.137a12.75 12.75 0 0 0-1.78.308q-1.914-.307-2.119-.649h-.24c-.3.319-.5.479-.616.479a1.519 1.519 0 0 0-.854-.308h-.139a8.885 8.885 0 0 0-1.912.786l-.243-.137h-3.047a6.326 6.326 0 0 0-1.2.137 1.179 1.179 0 0 0-.582-.137c-.526 0-.786.081-.786.24a1.828 1.828 0 0 0-.991-.24h-.82a7.5 7.5 0 0 0-1.1.308h-.548a5 5 0 0 1-1.231-.308l-1.912.479a.882.882 0 0 1-.378-.171q-4.206.31-7.148.308h-.546A5.465 5.465 0 0 0 97.5 7.9l-.649-.31-4 .31-.685-.173c-.342.137-.512.24-.512.308L90.39 7.9h-1.914a8.285 8.285 0 0 0-2.054.339 1.091 1.091 0 0 1-.649-.169l-4.685.308-.82-.173a5.576 5.576 0 0 1-1.368.344l-1.368-.171q-8.858.512-22.672 2.016a6.117 6.117 0 0 1-.89 1.64 32.7 32.7 0 0 1-2.191 4.618q-2.6 7.627-2.6 8.038a1.326 1.326 0 0 0 .137.479 13.873 13.873 0 0 0-.411 3.35v1.438a2.132 2.132 0 0 0 2.295 2.02q2.225 0 8.276-4a27.952 27.952 0 0 0 3.148-2.222 45.315 45.315 0 0 0 4.1-5.37l.207.308a12.312 12.312 0 0 1-1.13 3.728q-4.378 5.3-6.19 6.087a12.336 12.336 0 0 1-2.6 1.917q-3.492 2.393-5.952 2.393a6.231 6.231 0 0 1-4.137-2.018 2.954 2.954 0 0 0-.681-1.571l.135-.276v-.342a1.993 1.993 0 0 0-.409-1.162v-.276l.274-.476v-.957a10.117 10.117 0 0 1 .135-1.47 1.318 1.318 0 0 1-.135-.447 29.606 29.606 0 0 1 1.64-5.573 5.559 5.559 0 0 1 1.093-3.05 7.647 7.647 0 0 1 1.231-3.182 7.505 7.505 0 0 0 .959-2.393.932.932 0 0 1-.479-.171l-11.8 2.258a3.18 3.18 0 0 1-1.537-1.368l.135-.82.344-.753q11.247-2.46 15.628-2.944 2.086-3.006 2.085-3.9a26.193 26.193 0 0 0 1.881-3.8zm72.535 5h.753v.717l-.375.856a2.122 2.122 0 0 0-1.061-.342c0-.73.227-1.139.683-1.231m9.37.1h-.613v-.721h.613zm4.928.784h-1.16v-1.2h1.164zm1.777-.479h-.613v-.718h.613zm1.229.1c.047 0 .07.09.07.272l1.2-.306h-1.609zm3.557.546h-.616v-.714h.616z" transform="translate(46.576)" style="fill:#62588d"/>
                <path data-name="Path 18" d="M86.392 2.811c-.411-.07-.613-.285-.613-.649h.613z" transform="translate(106.967 2.696)" style="fill:#62588d"/>
                <path data-name="Path 19" d="M87.614 2.283v.207c.045 0-.047.115-.274.342h-.067c-.229-.3-.115-.481.342-.548" transform="translate(108.686 2.847)" style="fill:#62588d"/>
                <path data-name="Path 20" d="M89.31 2.366V2.3h.339v.135l.072.137c.2-.137.067-.2-.411-.2" transform="translate(111.37 2.867)" style="fill:#62588d"/>
                <path data-name="Path 21" d="M74.117 33.162a13.1 13.1 0 0 1 .3-1.685l-.5-.074a53.752 53.752 0 0 0 .613-6.633 1.142 1.142 0 0 1-.171-.618 2.35 2.35 0 0 1 .31-.888q-.138-2.225-.139-3.009l.139-.753a.124.124 0 0 1-.139-.139 33.286 33.286 0 0 1 1.2-9.2 2.166 2.166 0 0 0-1.37-1.502h-.272a1.686 1.686 0 0 1-.924.476 12.154 12.154 0 0 1-1.643 4.209q0 .479-3.182 4.514-2.665 2.976-4.339 3.454l-.137-.753v-.306q0-2.019 3.283-9.031c0-.8-.3-1.2-.89-1.2h-.171q-.994 0-2.975 5.267c-.685 2.393-1.184 3.588-1.505 3.588v.926l-.171 1.058c.115 0 .171.047.171.137-.115 0-.216.148-.308.445a2.63 2.63 0 0 0 2.838 2.566q1.847 0 3.182-2.258.718 0 4.343-4.957h.171A6.294 6.294 0 0 0 72.1 18l-.274 1.061v1.5l.753.89-.616 1.505.137.613-.274.447v.445l.137.308h-.133a4.929 4.929 0 0 0 .137 1.058 1.315 1.315 0 0 1-.137.445l.137.616-.137.753.137.274a1.326 1.326 0 0 1-.137.479l.137.753c-.5.364-.753.613-.753.753l.137.888v.753q0 1.163-1.64 1.332a23.113 23.113 0 0 0-6.33 2.121q-1.537 0-12.788 4.959a18.06 18.06 0 0 1-3.011 1.674 26.948 26.948 0 0 0-6.292 4.654q-3.317 2.8-3.317 5.573 0 4 4.206 6.294 2.086 1.5 6.77 2.119h1.061a16.483 16.483 0 0 0 5.4-1.058 22.976 22.976 0 0 0 11.15-9.166q2.6-2.666 5.541-11.15.58-2.7.921-2.7a1.78 1.78 0 0 1 .948-1.737c.047-.431.1-.863.144-1.292m-3.04 2.892c-.5 0-.753.353-.753 1.061a1.059 1.059 0 0 1 .139.445.273.273 0 0 1-.31.308 1.082 1.082 0 0 0 .171.443.273.273 0 0 1-.308.31c-.16.591-.306.888-.445.888 0 1-.308 1.505-.921 1.505v.753a.123.123 0 0 1-.139.137q-.1 1.365-.613 1.366c-.139 0-.389.548-.753 1.64 0 .072.1.229.308.481v.445c-.5 0-.957.353-1.368 1.058q-.994 1.952-1.332 1.95a1.755 1.755 0 0 1-.89 1.643q-2.26 1.228-2.26 2.254a6.483 6.483 0 0 0-2.872 2.7q-1.813.273-1.813 1.2h-.445l-.308-.135-3.146 1.64h-.443l-.753-.137q0 .239-2.429.616-6.943-.617-8.415-5.575v-.616q0-4.446 11.732-10.669A110.435 110.435 0 0 1 70.6 35.3h.171a.273.273 0 0 1 .308.308z" transform="translate(47.354 10.8)" style="fill:#62588d"/>
            </g>
        </g>
    </g>
</svg>
