<svg data-name="Group 39990" xmlns="http://www.w3.org/2000/svg" width="166.348" height="38.967" viewBox="0 0 166.348 38.967">
    <defs>
        <clipPath id="f5wyy84e7a">
            <path data-name="Rectangle 22553" style="fill:#fff" d="M0 0h166.348v38.967H0z"/>
        </clipPath>
    </defs>
    <g data-name="Group 39832" style="clip-path:url(#f5wyy84e7a)">
        <path data-name="Path 78080" d="M13.959 39.05c-2.018-.05-3.23-.05-3.922-2.33-.75-2.276-1.037-6.829-1.154-12.14-.116-2.926-.116-6.07-.116-8.888 0-2.276 0-4.39.058-5.961a8.626 8.626 0 0 0 .058-1.192A31.85 31.85 0 0 1 3.807 8.1C.346 7.454 0 5.937 0 4.69V4.2c.058-1.353.058-2.111 1.788-2.6S7.037.951 11.075.842c2.077-.054 4.211-.054 6.23-.054s3.865 0 5.191.054c2.654.054 3.4.271 4.153.6a2.638 2.638 0 0 1 1.73 1.843 4.114 4.114 0 0 1 .058.867 4.133 4.133 0 0 1-.981 2.818c-.923.921-2.48 1.138-7.153 1.355h-.288l.346 4.281c.173 3.2.4 7.479.4 11.6a48.351 48.351 0 0 1-.75 9.918c-1.1 4.5-3.4 4.932-5.365 4.932z" transform="translate(0 -.625)" style="fill:#fff"/>
        <path data-name="Path 78081" d="M149.122 40.572c-1.615-.054-2.654-.054-3.23-2.385-.635-2.385-.808-7.045-.923-12.519-.116-2.981-.116-6.233-.116-9.1 0-2.385 0-4.553.058-6.179.115-3.577.346-4.5.808-5.528a3.423 3.423 0 0 1 2.307-2.33 3.56 3.56 0 0 1 1.1-.163 5.688 5.688 0 0 1 3.574 1.351c.808.867 1.154 2.114 1.442 4.986.231-.759 1.558-5.095 6-5.853a13.555 13.555 0 0 1 2.192-.217 6.522 6.522 0 0 1 4.5 1.572c2.019 1.789 3.23 5.311 3.461 9.213l.058 1.734c0 3.685-.75 8.346-2.134 10.568-1.961 3.035-4.326 4.173-6.576 4.173a7.18 7.18 0 0 1-2.654-.488l1.5 1.355a9.622 9.622 0 0 0 4.672 1.68c1.615.271 3.4.6 4.384 1.788a3.668 3.668 0 0 1 .692 2.222 3 3 0 0 1-.865 2.276 5.333 5.333 0 0 1-3.634 1.138 10.029 10.029 0 0 1-2.769-.38 11.962 11.962 0 0 1-7.037-5.04 17.657 17.657 0 0 1-1.384-2.493 28.1 28.1 0 0 1-.462 3.523c-.923 4.986-3.115 5.095-4.73 5.095zm14.421-27.965c0-2.547-.519-4.5-1.9-4.661h-.231C158.985 8 157.6 14.5 157.6 19.544c0 3.2.577 5.8 1.731 5.8 2.019 0 4.211-7.533 4.211-12.736" transform="translate(-113.045 -1.876)" style="fill:#fff"/>
        <path data-name="Path 78082" d="M385.148 40.571c-1.673-.054-2.653-.054-3.288-2.385-.577-2.385-.808-7.046-.923-12.519-.058-2.71-.058-5.637-.058-8.292 0-2.71 0-5.2.058-6.991.116-3.577.346-4.5.75-5.528a3.424 3.424 0 0 1 2.308-2.331 3.941 3.941 0 0 1 1.153-.163 5.534 5.534 0 0 1 3.519 1.355c.808.867 1.211 2.114 1.442 4.986a14.4 14.4 0 0 1 .808-2.059 5.853 5.853 0 0 1 4.038-3.631 9.75 9.75 0 0 1 2.25-.325 6.343 6.343 0 0 1 4.442 1.626c2.019 1.843 3.23 5.365 3.461 9.213l.058 1.626a18.148 18.148 0 0 1-2.134 9.05 7.811 7.811 0 0 1-6.461 3.685h-.171a7.415 7.415 0 0 1-5.365-2.276c-.115-.108-.173-.217-.289-.271a62.532 62.532 0 0 1-.634 10.135c-.923 4.986-3.115 5.094-4.73 5.094zM396.743 17a11.958 11.958 0 0 0 .519-3.577 10.833 10.833 0 0 0-.692-4.01c-.346-.867-.808-1.355-1.327-1.355s-1.1.434-1.615 1.355a24.663 24.663 0 0 0-2.019 8.129l-.058.921c0 1.789.462 2.764 1.384 2.764h.115c1.1-.163 2.884-1.734 3.692-4.227" transform="translate(-297.242 -1.875)" style="fill:#fff"/>
        <path data-name="Path 78083" d="M521.643 37.937c-8.248 0-10.614-11.11-10.614-17.56 0-3.035.173-6.558.461-9.647l-.865-.054c-3.288-.271-3.692-.867-3.75-1.572l-.058-.488a1.857 1.857 0 0 1 .577-1.409c.4-.433 1.154-.488 4.326-.542h.173c.173-1.246.346-5.365 2.538-6.341A5.676 5.676 0 0 1 516.682 0c1.788 0 3.865.325 4.5 1.192.808 1.084 1.038 2.927 1.038 5.474 1.327.054 2.423.109 3.346.217 3 .325 3.346.975 3.4 1.734 0 .7-.231 1.409-3.519 1.788-.865.109-2.077.271-3.346.325-.115 1.517-.173 3.143-.346 4.661v1.842c-.058 1.68-.173 4.173-.173 6.5a36.425 36.425 0 0 0 .173 3.739c.4 2.927 1.384 4.227 2.076 4.282h.058c.634 0 1.1-1.192 1.384-2.927.289-1.788.519-4.119 1.327-5.365a2.851 2.851 0 0 1 2.423-1.192 3.832 3.832 0 0 1 1.1.163c1.211.217 2.076.867 2.192 3.143v.325c0 2.764-1.327 12.031-10.21 12.031z" transform="translate(-395.525)" style="fill:#fff"/>
        <path data-name="Path 78084" d="M652.233 44.6c-3.173 0-6.691-.813-9-2.818a10.735 10.735 0 0 1-3.577-7.425l.058-.163c.115-2.059 1.442-2.926 3.288-3.36a11.742 11.742 0 0 1 2.769-.379 3.756 3.756 0 0 1 2.653.813c1.1 1.192.807 3.685 1.327 5.42.462 1.734 1.615 2.764 2.711 2.764h.058c1.1-.109 2.134-1.3 2.653-3.956a58.062 58.062 0 0 0 .346-7.642v-.764a15.038 15.038 0 0 1-7.1 1.951 10.147 10.147 0 0 1-7.211-2.873c-1.673-1.572-2.6-3.956-2.884-7.262l-.058-2.059c0-2.873.4-5.907 1.327-7.7a3.949 3.949 0 0 1 3.865-2.059h.577c2.076.108 3.518.65 3.98 1.843l.058.325c0 1.192-.808 4.444-.808 7.479 0 2.656.635 5.095 2.884 5.691a6.063 6.063 0 0 0 1.038.109 7.617 7.617 0 0 0 3.576-.976c.288-.163.346-.975.346-2.114 0-2.818-.577-7.533-.577-9.213l.058-.271c.115-1.788.634-2.439 2.423-2.71a11.433 11.433 0 0 1 2.076-.163 6.074 6.074 0 0 1 4.1 1.193c1.154 1.084 1.269 3.143 1.269 5.907v4.39c0 1.9 0 3.848-.173 5.474 0 1.518-.057 2.927-.173 4.282-.289 6.5-1.154 10.189-3 12.628-1.9 2.385-4.845 3.469-8.249 3.631z" transform="translate(-498.115 -5.629)" style="fill:#fff"/>
        <path data-name="Path 78085" d="M293.465 17.117h.543a7.532 7.532 0 0 0 7.378-7.377 7.654 7.654 0 0 0-15.3 0 7.53 7.53 0 0 0 7.378 7.377m-5.791-9.8.177-.856c.647.088.68.227 1.028-.226.124-.162-.08-.072.228-.141.349-.079.163.038.573-.4l-.586-.665c.292-.044.638-.169.917-.242.159-.041.334-.125.438-.141a3.463 3.463 0 0 1 1.914.791c.166.158.425.339.6.484 1.475 1.177 1.259.457 2.523.79l.106.278.523-.011a.7.7 0 0 0 .08.271l.021.031c.234.368 0 .177.233.322s-.044.041.52.47c.251.19.036-.013.094.173.051.163.014.02.1.2-.147.209.033-.014-.145.1.435.43.19 1.011.91.937l-.118.2c.243.031.1-.03.251.213.556.882.739.652 1.967.817l.142.026c0-.006.382.1.166.751-.373 1.129.091.714-1.886 1.39-.771.264-2.081.078-2.653.709-.343.379-.283.572-.512.594-.451-.115.063-.16-.584-.176-.28-.007-.564-.109-.75-.109l-.6.05c-.331 0-.079-.114-.414-.074-.224.45.145.22-.266.628-.086-.085-.011 0-.082-.119l-.408-.612c-.611-.549-.414-.7-.732-1.16-.425-.622-.828-.22-1.066-1.219-.174-.724.189-.133-.168-.89a1.113 1.113 0 0 0-.5-.676c-.107-.067-.206-.088-.274-.145-.281-.229-.106-.395-.325-.7-.074-.1-.123-.165-.169-.244l-.054-.1-.02-.031a1.369 1.369 0 0 0-.085-.116l-.623-.916c-.168-.287-.113-.305-.5-.253" transform="translate(-223.265 -1.876)" style="fill:#fff"/>
        <path data-name="Path 78086" d="M290.159 162.6c-.121 0-.241.1-.281.286a.339.339 0 0 0 .241.334c3.854.429 5.3 1.382 5.3 1.859 0 .286-.562.906-2.61 1.383a29.79 29.79 0 0 1-6.7.715 27.482 27.482 0 0 1-6.7-.715c-2.047-.525-2.61-1.1-2.61-1.383 0-.477 1.445-1.43 5.3-1.859.121 0 .241-.143.241-.334a.29.29 0 0 0-.281-.286c-1.726.191-5.741.858-5.741 2.479 0 .811 1 1.478 3.011 1.955a32.548 32.548 0 0 0 13.57 0c1.967-.477 3.011-1.144 3.011-1.955 0-1.621-4.015-2.288-5.741-2.479" transform="translate(-215.633 -129.052)" style="fill:#fff"/>
        <path data-name="Path 78087" d="M309.975 78.394a2.939 2.939 0 0 0-1.764.472c-.787.669-1.071 3.146-1.1 6.214l-.031 2.517c0 3.893.315 9.635 3.245 9.635 2.583 0 2.93-7.354 2.93-10.579l-.031-1.337c-.126-3.186-.158-4.995-1.166-6.135a2.691 2.691 0 0 0-2.079-.786" transform="translate(-239.646 -62.22)" style="fill:#fff"/>
    </g>
</svg>
