<svg data-name="Group 39712" xmlns="http://www.w3.org/2000/svg" width="77.346" height="81.173" viewBox="0 0 77.346 81.173">
    <defs>
        <clipPath id="kta7a344ma">
            <path data-name="Rectangle 225" style="fill:#62588d;stroke:#62588d;stroke-width:.1px" d="M0 0h77.346v81.173H0z"/>
        </clipPath>
    </defs>
    <g data-name="Group 208" style="clip-path:url(#kta7a344ma)">
        <path data-name="Path 265" d="M55.2 55.472c4.914-1.085 9.814-2.12 14.131-5.327-.58-.165-.967-.28-1.356-.387a2.548 2.548 0 0 1-.62-4.773c1.227-.7 2.44-1.416 3.667-2.113a2.525 2.525 0 0 1 3.742.975c.729 1.236 1.431 2.489 2.155 3.729a2.444 2.444 0 0 1-.115 2.916 2.294 2.294 0 0 1-2.782.853 3.282 3.282 0 0 0-3.833.787c-2.378 2.124-5.413 3.164-8.447 4.009-2.569.715-5.2 1.205-7.8 1.827a1.6 1.6 0 0 0-.876.542Q45.272 69.5 37.51 80.527a1.121 1.121 0 0 1-2.042-.022q-7.775-11.013-15.554-22.022a1.4 1.4 0 0 0-.811-.515A55.526 55.526 0 0 1 7.1 54.7a16.151 16.151 0 0 1-5.2-3.231c-2.542-2.509-2.533-5.462.044-7.94a18.831 18.831 0 0 1 6.387-3.687c.276-.109.555-.213.829-.324.044-.016.075-.062.144-.125-.358-1.056-.755-2.12-1.078-3.205-2.547-8.545-.778-16.409 4.167-23.558A28.234 28.234 0 0 1 33.939.119a29.438 29.438 0 0 1 31.625 24.548 26.917 26.917 0 0 1-1.964 14.88 98.119 98.119 0 0 1-8.09 15.178 7.705 7.705 0 0 0-.3.509c-.02.036 0 .095 0 .238M36.4 57.083a99.744 99.744 0 0 0 15.176-1.053 1.119 1.119 0 0 0 .709-.415 104.329 104.329 0 0 0 8.971-16.14 25.468 25.468 0 0 0 2.078-14.7 27.194 27.194 0 0 0-29.368-22.42c-9.23.913-16.234 5.511-20.988 13.445a25.382 25.382 0 0 0-3.614 14.78 25.2 25.2 0 0 0 1.907 7.676 95.936 95.936 0 0 0 9.456 17.383 1.137 1.137 0 0 0 .715.409A98.942 98.942 0 0 0 36.4 57.083M22.8 58.5a6.99 6.99 0 0 1-.135.2L36.5 78.072c4.649-6.511 9.247-12.951 13.843-19.391l-.165-.171A115.691 115.691 0 0 1 22.8 58.5M10.014 41.585c-.713.285-1.587.6-2.436.984A12.865 12.865 0 0 0 3.2 45.433c-1.3 1.42-1.356 2.875.055 4.178a16.053 16.053 0 0 0 3.445 2.4 37.6 37.6 0 0 0 9.549 3.131c.513.111 1.031.2 1.482.291l-7.717-13.848m65.045 7.633c0-.2.036-.316-.005-.387-.74-1.311-1.475-2.625-2.26-3.907-.08-.129-.536-.167-.72-.067a82.885 82.885 0 0 0-3.338 1.913 3.294 3.294 0 0 0-.551.531 3.166 3.166 0 0 0 .664.38q2.673.739 5.358 1.436a6.368 6.368 0 0 0 .853.1" transform="translate(0 -.001)" style="fill:#62588d;stroke:#62588d;stroke-width:.1px"/>
        <path data-name="Path 266" d="M50.737 25.755A21.142 21.142 0 1 1 30.181 4.54a21.184 21.184 0 0 1 20.556 21.215m-4.751-9.449c-1.844.058-3.489.182-5.133.145a8.99 8.99 0 0 0-4.762 1.08c-3.149 1.755-5.078 1.178-6.965-1.893-.62-1.011-1.171-2.065-1.727-3.114a.837.837 0 0 0-.951-.493 29.7 29.7 0 0 1-2.369.145 4.036 4.036 0 0 1-3.664-2c-.147-.225-.289-.453-.475-.744a19.011 19.011 0 0 0-7.9 9.187c.751.2 1.4.342 2.035.549 3.265 1.073 4.227 3.1 3 6.327-.289.76-.649 1.5-.945 2.256-.378.973-.244 1.313.7 1.776.531.262 1.093.464 1.627.718 3.32 1.587 4.114 3.605 2.656 6.985-.6 1.4-1.373 2.718-2.1 4.134a17.351 17.351 0 0 0 4.644 2.249 7.094 7.094 0 0 1-.431-3.878c.376-1.791 1.635-2.951 2.907-4.1.484-.438 1.251-.787 1.4-1.313.149-.547-.331-1.253-.471-1.9a39.153 39.153 0 0 1-.915-4.782 2.707 2.707 0 0 1 2.4-2.929 5.706 5.706 0 0 1 1.842-.078 35.412 35.412 0 0 1 3.56.707 5.359 5.359 0 0 0 5.39-1.44q.824-.807 1.673-1.584a3.954 3.954 0 0 1 4.274-.838c.789.284 1.547.655 2.32.984.187.08.376.156.645.269a18.278 18.278 0 0 0-2.265-6.422m-16.729 28.3a18.776 18.776 0 0 0 13.523-5.418 18.284 18.284 0 0 0 5.667-13.216.925.925 0 0 0-.335-.716 62.379 62.379 0 0 0-3.549-1.676 1.824 1.824 0 0 0-2.118.424c-.665.631-1.316 1.276-2.009 1.875a6.815 6.815 0 0 1-5.822 1.8c-1.387-.242-2.758-.582-4.147-.807-1.933-.316-2.449.209-2.015 2.113.349 1.54.849 3.045 1.249 4.574.389 1.489.12 2.067-1.08 3.005a28.714 28.714 0 0 0-2.478 2.224 2.529 2.529 0 0 0-.775 2.382 18.633 18.633 0 0 0 1.042 2.9c.076.182.425.32.664.349.809.1 1.625.147 2.182.193M22 8.435a2.129 2.129 0 0 0 2.258 1.522c.764-.065 1.533-.076 2.295-.164A2.379 2.379 0 0 1 29.1 11.08c.575 1.011 1.122 2.036 1.707 3.042 1.435 2.458 2.167 2.687 4.625 1.265a8.477 8.477 0 0 1 4.536-1.156c1.164.025 2.327.031 3.493.024a7.9 7.9 0 0 0 .962-.125C39.51 7.306 29.566 4.873 22 8.435m-4.837 31.434a15.548 15.548 0 0 0 2.371-4.816 1.66 1.66 0 0 0-.693-1.964 13.03 13.03 0 0 0-2.069-1.14c-3.129-1.316-3.72-2.782-2.362-5.878a23.2 23.2 0 0 0 .925-2.575 1.323 1.323 0 0 0-.589-1.555 7.355 7.355 0 0 0-3.384-1.1 18.623 18.623 0 0 0 5.8 19.023" transform="translate(6.917 3.71)" style="fill:#62588d;stroke:#62588d;stroke-width:.1px"/>
    </g>
</svg>
