<svg data-name="Group 39976" xmlns="http://www.w3.org/2000/svg" width="35.442" height="37.196" viewBox="0 0 35.442 37.196">
    <defs>
        <clipPath id="nsmk03p54a">
            <path data-name="Rectangle 225" style="fill:#6c3d8e;stroke:#62588d;stroke-width:.1px" d="M0 0h35.442v37.196H0z"/>
        </clipPath>
    </defs>
    <g data-name="Group 208" style="clip-path:url(#nsmk03p54a)">
        <path data-name="Path 265" d="M25.3 25.418a16.047 16.047 0 0 0 6.475-2.441c-.266-.076-.443-.128-.622-.177a1.168 1.168 0 0 1-.284-2.187c.562-.32 1.118-.649 1.68-.968a1.157 1.157 0 0 1 1.715.447c.334.567.656 1.141.987 1.709a1.12 1.12 0 0 1-.052 1.336 1.051 1.051 0 0 1-1.275.391 1.5 1.5 0 0 0-1.756.361 9.422 9.422 0 0 1-3.871 1.837c-1.177.327-2.383.552-3.572.837a.734.734 0 0 0-.4.248q-3.58 5.037-7.137 10.089a.514.514 0 0 1-.936-.01Q12.69 31.843 9.125 26.8a.64.64 0 0 0-.372-.236 25.443 25.443 0 0 1-5.5-1.5 7.4 7.4 0 0 1-2.383-1.48 2.321 2.321 0 0 1 .02-3.638 8.629 8.629 0 0 1 2.927-1.69c.127-.05.254-.1.38-.148.02-.007.034-.028.066-.057-.164-.484-.346-.971-.494-1.469A12.125 12.125 0 0 1 5.678 5.787 12.937 12.937 0 0 1 15.552.054 13.489 13.489 0 0 1 30.043 11.3a12.334 12.334 0 0 1-.9 6.818 44.96 44.96 0 0 1-3.708 6.955c-.048.077-.1.154-.139.233-.009.017 0 .043 0 .109m-8.617.738a45.705 45.705 0 0 0 6.954-.482.513.513 0 0 0 .325-.19 47.806 47.806 0 0 0 4.111-7.4 11.67 11.67 0 0 0 .952-6.735A12.461 12.461 0 0 0 15.564 1.079a12.114 12.114 0 0 0-9.617 6.159 11.631 11.631 0 0 0-1.656 6.772 11.549 11.549 0 0 0 .874 3.517A43.96 43.96 0 0 0 9.5 25.493a.521.521 0 0 0 .327.187 45.337 45.337 0 0 0 6.853.476m-6.231.648-.062.092 6.339 8.878 6.343-8.885-.076-.078a53.012 53.012 0 0 1-12.546-.011m-5.859-7.75c-.327.131-.727.277-1.116.451a5.9 5.9 0 0 0-2.006 1.312 1.216 1.216 0 0 0 .025 1.915 7.356 7.356 0 0 0 1.579 1.1 17.231 17.231 0 0 0 4.376 1.435c.235.051.472.093.679.133l-3.536-6.341m29.8 3.5c0-.092.017-.145 0-.177-.339-.6-.676-1.2-1.036-1.79-.037-.059-.246-.077-.33-.031-.518.277-1.025.576-1.53.876a1.509 1.509 0 0 0-.252.243 1.451 1.451 0 0 0 .3.174q1.225.339 2.455.658a2.918 2.918 0 0 0 .391.047" style="fill:#6c3d8e;stroke:#62588d;stroke-width:.1px"/>
        <path data-name="Path 266" d="M27.829 14.258a9.688 9.688 0 1 1-9.419-9.72 9.707 9.707 0 0 1 9.419 9.721m-2.177-4.33c-.845.027-1.6.083-2.352.067a4.119 4.119 0 0 0-2.182.495c-1.443.8-2.327.54-3.192-.867-.284-.463-.537-.946-.791-1.427a.384.384 0 0 0-.435-.227c-.36.038-.723.057-1.086.067a1.85 1.85 0 0 1-1.679-.916c-.067-.1-.132-.207-.217-.341a8.711 8.711 0 0 0-3.618 4.21c.344.092.643.157.932.252a1.931 1.931 0 0 1 1.374 2.9c-.132.348-.3.686-.433 1.034-.173.446-.112.6.319.814.243.12.5.212.746.329 1.521.727 1.885 1.652 1.217 3.2-.276.64-.629 1.246-.961 1.895a7.951 7.951 0 0 0 2.128 1.031 3.251 3.251 0 0 1-.2-1.777 3.6 3.6 0 0 1 1.332-1.879c.222-.2.573-.361.64-.6s-.152-.574-.216-.871a17.941 17.941 0 0 1-.419-2.191 1.24 1.24 0 0 1 1.1-1.342 2.615 2.615 0 0 1 .844-.036 16.226 16.226 0 0 1 1.631.324 2.456 2.456 0 0 0 2.469-.663q.377-.37.766-.726a1.812 1.812 0 0 1 1.959-.384c.362.13.709.3 1.063.451l.3.123a8.375 8.375 0 0 0-1.038-2.943M17.987 22.9a8.6 8.6 0 0 0 6.2-2.483 8.378 8.378 0 0 0 2.6-6.056.424.424 0 0 0-.153-.328 30.142 30.142 0 0 0-1.626-.768.836.836 0 0 0-.971.194c-.3.289-.6.585-.921.859a3.123 3.123 0 0 1-2.668.824c-.636-.111-1.264-.267-1.9-.37-.886-.145-1.122.1-.923.968.16.706.389 1.4.572 2.1a1.071 1.071 0 0 1-.495 1.377 13.158 13.158 0 0 0-1.142 1.013 1.159 1.159 0 0 0-.355 1.091 8.538 8.538 0 0 0 .477 1.328c.035.083.195.147.3.16.371.047.745.067 1 .088M14.663 6.322a.976.976 0 0 0 1.035.7c.35-.03.7-.035 1.051-.075a1.09 1.09 0 0 1 1.163.59c.263.463.514.933.782 1.394.657 1.126.993 1.231 2.119.58a3.885 3.885 0 0 1 2.079-.53 56.87 56.87 0 0 0 1.6.011 3.621 3.621 0 0 0 .441-.057 8.542 8.542 0 0 0-10.27-2.613m-2.219 14.4a7.125 7.125 0 0 0 1.086-2.207.761.761 0 0 0-.317-.9 5.971 5.971 0 0 0-.948-.522c-1.434-.6-1.7-1.275-1.082-2.693a10.63 10.63 0 0 0 .424-1.18.606.606 0 0 0-.27-.712 3.37 3.37 0 0 0-1.55-.5 8.533 8.533 0 0 0 2.658 8.717" transform="translate(-1.411 -.757)" style="fill:#6c3d8e;stroke:#62588d;stroke-width:.1px"/>
    </g>
</svg>
