<svg data-name="Group 39713" xmlns="http://www.w3.org/2000/svg" width="66.828" height="85.889" viewBox="0 0 66.828 85.889">
    <defs>
        <clipPath id="zmdet1ltsa">
            <path data-name="Rectangle 226" style="fill:#62588d;stroke:#62588d;stroke-width:.2px" d="M0 0h66.828v85.889H0z"/>
        </clipPath>
    </defs>
    <g data-name="Group 210" style="clip-path:url(#zmdet1ltsa)">
        <path data-name="Path 267" d="M28.635 85.889c-1.58-.461-3.157-.926-4.739-1.38C1.175 77.969-7.552 49.717 7.469 31.423A20.779 20.779 0 0 0 9.283 28.2q.89.555 1.784 1.106c-.244 1.346-.4 2.714-.745 4.033-2.71 10.45 2.044 21.97 11.281 26.834 3.915-5.313 5.723-11.011 3.161-17.47-1.356-3.417-3.1-6.68-4.5-10.078C14.331 18.265 24.308 1.588 39.72.041c.866-.086 1.746-.01 3.33-.01a23.7 23.7 0 0 1-1.531 3.139c-4.732 6.64-5.479 13.8-2.6 21.311a88.053 88.053 0 0 0 4.47 9.357c5.461 10.376 6.1 12.719 6.16 24.408 4.321-3.159 7.175-7.122 8.206-11.912.967-4.494.89-9.216 1.32-14.4 4.985 4.959 6.136 11.1 7.757 17.024v7.387a6.693 6.693 0 0 0-.65 1.449c-2.681 13.948-10.851 22.89-24.4 26.946-1.256.375-2.509.767-3.761 1.153zm18.759-23.058a11.272 11.272 0 0 1-.4-2.81c1.537-8.338-.705-15.88-4.5-23.205A111.173 111.173 0 0 1 36.1 22.863c-2.436-6.9-.969-13.59 2.817-19.943-11.384 1.3-20.275 13.06-17.871 23.914 1 4.5 3.247 8.734 5.1 13.015 3.328 7.681 2.3 14.765-2.478 21.5-1.251 1.762-2.381 1.882-4.128.687-5.348-3.663-9.287-8.407-10.992-14.7a102.816 102.816 0 0 1-1.753-10.228c-7.557 9.655-5.544 27.154 4.395 37.246a31.111 31.111 0 0 0 40.91 2.965c11.405-8.612 15.846-25.683 9.258-37.219-.993 9.822-5.114 17.319-13.963 22.727" style="fill:#62588d;stroke:#62588d;stroke-width:.2px"/>
    </g>
</svg>
