<svg data-name="Group 39713" xmlns="http://www.w3.org/2000/svg" width="25.5" height="32.773" viewBox="0 0 25.5 32.773">
    <defs>
        <clipPath id="3se8rc6iya">
            <path data-name="Rectangle 226" style="fill:#6c3d8e;stroke:#6c3d8e;stroke-width:.5px" d="M0 0h25.5v32.774H0z"/>
        </clipPath>
    </defs>
    <g data-name="Group 210" style="clip-path:url(#3se8rc6iya)">
        <path data-name="Path 267" d="M10.927 32.774c-.6-.176-1.2-.353-1.808-.527A12.764 12.764 0 0 1 2.85 11.99a7.929 7.929 0 0 0 .692-1.23l.681.422c-.093.513-.154 1.035-.284 1.539a9.12 9.12 0 0 0 4.3 10.239c1.494-2.028 2.184-4.2 1.206-6.666-.517-1.3-1.182-2.549-1.718-3.846A9.141 9.141 0 0 1 15.156.016c.33-.033.666 0 1.27 0a9.044 9.044 0 0 1-.584 1.2 8.2 8.2 0 0 0-.993 8.132 33.6 33.6 0 0 0 1.706 3.57c2.084 3.959 2.327 4.853 2.351 9.313a7.577 7.577 0 0 0 3.131-4.545 44.5 44.5 0 0 0 .5-5.5c1.9 1.892 2.341 4.236 2.96 6.5V21.5a2.554 2.554 0 0 0-.248.553 12.488 12.488 0 0 1-9.311 10.282c-.479.143-.957.293-1.435.44zm7.158-8.8a4.3 4.3 0 0 1-.154-1.072 13.489 13.489 0 0 0-1.716-8.855 42.421 42.421 0 0 1-2.439-5.324 8.716 8.716 0 0 1 1.075-7.61c-4.344.5-7.736 4.983-6.819 9.125a28.376 28.376 0 0 0 1.947 4.966 7.884 7.884 0 0 1-.945 8.2c-.477.672-.909.718-1.575.262a9.863 9.863 0 0 1-4.194-5.608 39.232 39.232 0 0 1-.67-3.9C-.291 17.844.477 24.521 4.27 28.372A11.871 11.871 0 0 0 19.88 29.5c4.352-3.286 6.047-9.8 3.533-14.2a10.693 10.693 0 0 1-5.328 8.672" style="fill:#6c3d8e;stroke:#6c3d8e;stroke-width:.5px"/>
    </g>
</svg>
