<svg xmlns="http://www.w3.org/2000/svg" width="48.401" height="48.275" viewBox="0 0 48.401 48.275">
    <defs>
        <clipPath id="clip-path">
            <rect id="Rectangle_196" data-name="Rectangle 196" width="48.364" height="47.29" rx="20" style="fill:#fff"/>
        </clipPath>
        <style>
            
        </style>
    </defs>
    <g id="Group_39731" data-name="Group 39731" transform="translate(1486.037 -13336.021)">
        <g id="Group_39729" data-name="Group 39729" transform="translate(-1486 13336.144)">
            <path id="Path_262" data-name="Path 262" d="M20.958 0h4.359a20.958 20.958 0 0 1 20.958 20.958v4.359a20.958 20.958 0 0 1-20.958 20.958h-4.359A20.958 20.958 0 0 1 0 25.317v-4.359A20.958 20.958 0 0 1 20.958 0z" transform="translate(.963 .877)" style="fill:none;stroke:#61578c;stroke-width:2px"/>
        </g>
        <path id="Path_78024" data-name="Path 78024" d="M317.511 1718.63a4.634 4.634 0 1 1-4.634-4.63 4.613 4.613 0 0 1 4.634 4.63zm-4.634 12.876c-3.8 0-7-.621-7-3s3.226-2.976 7-2.976c3.8 0 7 .622 7 3s-3.222 2.976-6.999 2.976z" transform="translate(-1774.695 11637.036)" style="fill:#61578c;fill-rule:evenodd"/>
    </g>
</svg>
